<svg width="160" height="31" fill="none" xmlns="http://www.w3.org/2000/svg"><path d="M9.142 9.95L3.138.76H0V18h4.218l-.042-8.704 3.803 5.979h2.327l3.782-5.916V18h4.197V.76h-3.138L9.142 9.95zm18.14-4.9c-3.844 0-6.65 2.767-6.65 6.464 0 3.76 2.827 6.486 6.65 6.486 3.802 0 6.628-2.725 6.628-6.486 0-3.718-2.826-6.465-6.628-6.465zm0 9.464c-1.704 0-2.805-1.268-2.805-3 0-1.669 1.122-3.021 2.805-3.021 1.662 0 2.784 1.352 2.784 3.021 0 1.732-1.122 3-2.784 3zM43.26 5.366c-1.288 0-2.348.402-3.324 1.141v-.803h-4.073V18h4.073v-7.732c.706-.782 1.475-1.162 2.202-1.162 1.35 0 2.224.781 2.224 2.535V18h4.03v-7.035c0-3.486-2.098-5.599-5.132-5.599zm13.714-.316c-3.844 0-6.65 2.767-6.65 6.464 0 3.76 2.827 6.486 6.65 6.486 3.802 0 6.628-2.725 6.628-6.486 0-3.718-2.826-6.465-6.628-6.465zm0 9.464c-1.704 0-2.805-1.268-2.805-3 0-1.669 1.122-3.021 2.805-3.021 1.662 0 2.784 1.352 2.784 3.021 0 1.732-1.122 3-2.784 3zM80.62 5.366c-1.788 0-3.013.486-4.302 1.627-.893-1.035-2.202-1.627-3.719-1.627-1.33 0-2.16.36-2.971 1.035v-.697h-4.073V18h4.073v-7.88c.582-.74 1.205-1.014 1.787-1.014 1.309 0 2.16.781 2.16 2.535V18h4.032v-7.035c0-.296-.021-.613-.042-.887.603-.74 1.226-.993 1.85-.993 1.33 0 2.16.781 2.16 2.535v6.359h4.031v-7.014c.021-3.486-2.078-5.599-4.987-5.599zm13.61-.316c-3.845 0-6.65 2.767-6.65 6.464 0 3.76 2.826 6.486 6.65 6.486 3.801 0 6.627-2.725 6.627-6.486 0-3.718-2.826-6.465-6.628-6.465zm0 9.464c-1.705 0-2.806-1.268-2.806-3 0-1.669 1.122-3.021 2.805-3.021 1.662 0 2.784 1.352 2.784 3.021 0 1.732-1.122 3-2.784 3zM107.049 0h-4.072v18h4.072V0zm8.769 5.05c-3.844 0-6.649 2.767-6.649 6.464 0 3.76 2.825 6.486 6.649 6.486 3.802 0 6.628-2.725 6.628-6.486 0-3.718-2.826-6.465-6.628-6.465zm0 9.464c-1.704 0-2.805-1.268-2.805-3 0-1.669 1.122-3.021 2.805-3.021 1.662 0 2.784 1.352 2.784 3.021 0 1.732-1.122 3-2.784 3zm14.918-5.979c1.226 0 2.161.782 2.369 1.902h3.803c-.291-3.17-2.868-5.367-6.213-5.367-3.782 0-6.608 2.747-6.608 6.465 0 3.76 2.826 6.465 6.608 6.465 3.345 0 5.901-2.176 6.213-5.345h-3.803c-.208 1.12-1.143 1.88-2.369 1.88-1.745 0-2.763-1.31-2.763-3s1.018-3 2.763-3zm14.483-3.485c-3.844 0-6.649 2.767-6.649 6.464 0 3.76 2.826 6.486 6.649 6.486 3.802 0 6.628-2.725 6.628-6.486 0-3.718-2.826-6.465-6.628-6.465zm0 9.464c-1.704 0-2.805-1.268-2.805-3 0-1.669 1.122-3.021 2.805-3.021 1.662 0 2.784 1.352 2.784 3.021 0 1.732-1.122 3-2.784 3zM157.79 6.19a.725.725 0 00-.25-.148c.25-.02.457-.105.603-.274a.865.865 0 00.228-.57.751.751 0 00-.145-.444.767.767 0 00-.374-.296c-.145-.064-.395-.085-.748-.085h-.997v2.958h.478V6.063h.27a.61.61 0 01.374.106c.124.085.291.317.498.697l.25.465h.581l-.353-.57a2.848 2.848 0 00-.415-.57zm-.624-.486h-.561v-.908h.541c.228 0 .394.02.477.042.084.021.146.085.208.148.063.063.063.148.063.232a.424.424 0 01-.146.338c-.104.085-.291.148-.582.148z" fill="#0094FF"/><path d="M159.66 4.458a2.502 2.502 0 00-1.018-1.014c-.437-.233-.873-.36-1.33-.36-.457 0-.894.127-1.33.36-.436.232-.769.57-1.018 1.014-.25.443-.374.908-.374 1.373 0 .465.124.93.353 1.373.249.444.582.782.997 1.014.437.233.873.36 1.351.36s.914-.127 1.351-.36c.436-.232.768-.591.997-1.014a2.94 2.94 0 00.353-1.373c.042-.465-.083-.93-.332-1.373zm-.374 2.535c-.208.36-.478.655-.831.845a2.132 2.132 0 01-1.122.296 2.35 2.35 0 01-1.123-.296c-.353-.211-.644-.486-.831-.845a2.23 2.23 0 01-.291-1.14c0-.402.104-.783.312-1.163.208-.359.478-.655.852-.845.353-.19.727-.296 1.122-.296.374 0 .748.106 1.101.296.354.19.644.486.852.845.208.36.312.76.312 1.162-.062.38-.146.76-.353 1.141zM56.974 3.76c.83 0 1.392-.633 1.392-1.5 0-.845-.561-1.5-1.392-1.5-.852 0-1.413.677-1.413 1.5 0 .867.56 1.5 1.413 1.5z" fill="#0094FF"/><path d="M.787 22.11H3.92c.365 0 .683.05.951.15.272.1.497.245.675.435.178.19.311.422.399.694.087.272.131.581.131.928 0 .322-.052.619-.155.89a1.975 1.975 0 01-.45.7 2.034 2.034 0 01-.712.454c-.281.11-.6.164-.956.164H2.227V29H.787v-6.89zm1.44 3.224H3.59c.325 0 .58-.08.764-.239.187-.16.28-.418.28-.778a1.28 1.28 0 00-.074-.464.766.766 0 00-.206-.314.766.766 0 00-.328-.183 1.441 1.441 0 00-.436-.06H2.227v2.038zm8.939 2.658c0 .153.007.28.023.38.019.097.042.175.07.234.028.056.06.099.094.127a.45.45 0 00.117.056V29h-1.467a3.01 3.01 0 01-.084-.234 1.35 1.35 0 01-.042-.361 6.643 6.643 0 01-.305.295c-.097.09-.206.17-.328.24a1.717 1.717 0 01-.422.154c-.16.04-.352.06-.577.06-.228 0-.439-.034-.632-.102a1.374 1.374 0 01-.497-.296 1.335 1.335 0 01-.329-.492 1.847 1.847 0 01-.117-.684c0-.21.033-.403.099-.582.065-.18.158-.339.276-.473a1.5 1.5 0 01.44-.337c.176-.091.371-.152.587-.183l1.298-.192c.047-.007.097-.016.15-.029a.514.514 0 00.155-.06.396.396 0 00.117-.122.414.414 0 00.047-.211.602.602 0 00-.042-.23.399.399 0 00-.131-.183.64.64 0 00-.254-.122 1.51 1.51 0 00-.389-.042 1.36 1.36 0 00-.43.056.595.595 0 00-.254.15.552.552 0 00-.136.225 1.442 1.442 0 00-.06.272H6.815c0-.062.009-.148.028-.258.022-.112.06-.234.112-.365.056-.131.133-.264.23-.399.1-.134.23-.256.389-.365.162-.113.36-.205.59-.277.232-.072.508-.11.83-.112.457 0 .825.047 1.107.14.284.09.504.211.66.361.16.147.266.313.32.497.055.181.084.363.084.544v2.71zm-1.327-1.486a4.395 4.395 0 01-.244.122c-.08.035-.189.064-.323.09l-.352.065c-.153.028-.287.06-.403.098a.91.91 0 00-.29.15.599.599 0 00-.174.22.835.835 0 00-.056.329c0 .11.017.204.051.286a.566.566 0 00.141.197c.063.05.134.087.216.112a.888.888 0 00.262.037c.05 0 .114-.004.192-.014a1.395 1.395 0 00.511-.192.953.953 0 00.235-.215 1.1 1.1 0 00.168-.32c.044-.127.066-.277.066-.45v-.515zm2.245-1.2c.004-.281.06-.52.17-.717.112-.2.263-.362.454-.487.19-.125.415-.216.675-.272.26-.06.539-.09.839-.09.337 0 .628.041.872.123.244.08.445.189.604.323.16.134.277.289.352.464.075.172.113.348.113.53 0 .15-.022.284-.066.403a1.017 1.017 0 01-.178.305 1.011 1.011 0 01-.263.21 1.231 1.231 0 01-.304.127v.019c.178.028.33.081.454.16a1.028 1.028 0 01.474.623c.037.125.056.248.056.37 0 .319-.063.589-.188.81a1.616 1.616 0 01-.492.545 2 2 0 01-.68.304 2.94 2.94 0 01-.754.099 4.17 4.17 0 01-.914-.094 1.98 1.98 0 01-.713-.295 1.479 1.479 0 01-.464-.544c-.112-.225-.17-.5-.173-.825h1.265c0 .119.022.228.066.328a.76.76 0 00.183.258.845.845 0 00.281.169c.11.04.231.06.366.06a.947.947 0 00.403-.075.707.707 0 00.389-.445.842.842 0 00.042-.248c0-.244-.067-.414-.201-.511-.132-.1-.343-.15-.633-.15h-.61v-.886h.511c.297 0 .507-.052.628-.155.125-.103.188-.253.188-.45a.67.67 0 00-.056-.29.533.533 0 00-.375-.29 1.18 1.18 0 00-.286-.034c-.235 0-.425.055-.572.164-.144.106-.216.261-.216.464h-1.247zm5.058-1.415h1.266v.73h.019c.09-.152.186-.284.285-.393a1.386 1.386 0 01.736-.436 2.272 2.272 0 01.99.005c.165.037.326.098.482.183.16.08.31.189.45.323.14.131.264.294.37.488.107.193.191.42.254.68.062.256.093.55.093.88 0 .413-.045.791-.135 1.135a2.533 2.533 0 01-.404.886 1.84 1.84 0 01-.68.576 2.105 2.105 0 01-.96.207c-.128 0-.258-.013-.39-.038a1.515 1.515 0 01-.74-.366 1.557 1.557 0 01-.29-.384h-.02v2.611h-1.326v-7.087zm2.419 1.04c-.213 0-.392.046-.54.136a1.11 1.11 0 00-.35.352 1.608 1.608 0 00-.193.487c-.04.181-.06.361-.06.54 0 .096.004.202.013.318a2.4 2.4 0 00.066.347c.031.116.073.228.126.337.057.11.127.207.211.291.085.084.186.153.305.206.119.05.26.075.422.075.162 0 .303-.025.422-.075a1.008 1.008 0 00.51-.497c.057-.109.1-.221.132-.337a2.985 2.985 0 00.08-.666c0-.178-.02-.358-.061-.539a1.54 1.54 0 00-.197-.487 1.05 1.05 0 00-.352-.352.999.999 0 00-.534-.136zm7.617 3.061c0 .153.008.28.024.38a.965.965 0 00.07.234c.028.056.06.099.094.127a.45.45 0 00.117.056V29h-1.467a2.98 2.98 0 01-.085-.234 1.35 1.35 0 01-.042-.361 6.685 6.685 0 01-.305.295c-.096.09-.206.17-.328.24a1.717 1.717 0 01-.422.154c-.159.04-.351.06-.576.06-.228 0-.44-.034-.633-.102a1.375 1.375 0 01-.497-.296 1.335 1.335 0 01-.328-.492 1.848 1.848 0 01-.117-.684c0-.21.033-.403.098-.582.066-.18.158-.339.277-.473.122-.137.269-.25.44-.337a1.82 1.82 0 01.586-.183l1.299-.192c.047-.007.097-.016.15-.029a.514.514 0 00.154-.06.397.397 0 00.118-.122.415.415 0 00.047-.211.602.602 0 00-.043-.23.4.4 0 00-.13-.183.639.639 0 00-.254-.122 1.51 1.51 0 00-.39-.042 1.36 1.36 0 00-.43.056.594.594 0 00-.253.15.553.553 0 00-.136.225 1.444 1.444 0 00-.061.272h-1.327c0-.062.01-.148.028-.258.022-.112.06-.234.113-.365.056-.131.133-.264.23-.399.1-.134.23-.256.388-.365.163-.113.36-.205.591-.277.231-.072.508-.11.83-.112.456 0 .825.047 1.106.14.284.09.505.211.661.361.16.147.266.313.319.497.056.181.084.363.084.544v2.71zm-1.326-1.486a4.396 4.396 0 01-.244.122 1.602 1.602 0 01-.324.09l-.351.065c-.153.028-.288.06-.403.098a.91.91 0 00-.29.15.6.6 0 00-.174.22.835.835 0 00-.057.329c0 .11.018.204.052.286a.566.566 0 00.14.197c.063.05.135.087.216.112a.888.888 0 00.263.037c.05 0 .114-.004.192-.014a1.395 1.395 0 00.51-.192.954.954 0 00.235-.215 1.1 1.1 0 00.169-.32c.044-.127.066-.277.066-.45v-.515zm7.003-4.476c.003.262-.042.478-.136.647a1.17 1.17 0 01-.375.403c-.153.1-.331.173-.535.22-.2.044-.406.073-.618.09a4.941 4.941 0 00-.455.06 2.37 2.37 0 00-.46.122c-.15.053-.292.125-.426.216a1.555 1.555 0 00-.36.328 1.69 1.69 0 00-.263.468 2.192 2.192 0 00-.127.638 1.58 1.58 0 01.647-.84 2.08 2.08 0 01.572-.257c.215-.066.454-.098.717-.098.35 0 .666.059.947.178a2 2 0 01.717.492c.197.212.347.469.45.769.106.3.16.632.16.998 0 .406-.062.775-.183 1.106-.12.332-.291.616-.516.853a2.303 2.303 0 01-.816.549 2.92 2.92 0 01-1.087.192c-.588 0-1.074-.12-1.458-.36-.384-.241-.68-.634-.886-1.177a3.425 3.425 0 01-.16-.586 7.703 7.703 0 01-.084-.582 7.69 7.69 0 01-.033-.74c0-.488.057-.933.17-1.336.112-.406.29-.76.534-1.06.247-.3.562-.542.947-.726.387-.184.856-.302 1.406-.352.175-.015.298-.043.37-.084.075-.044.122-.088.14-.131h1.2zm-3.375 4.415c0 .194.02.386.06.577a1.6 1.6 0 00.212.506 1.1 1.1 0 00.38.356c.155.091.348.136.576.136.24 0 .439-.043.595-.13.16-.092.286-.209.38-.352.094-.147.16-.315.197-.502a3.09 3.09 0 00.056-.59c0-.2-.022-.388-.066-.563a1.29 1.29 0 00-.206-.455.942.942 0 00-.366-.305 1.205 1.205 0 00-.543-.112c-.228 0-.424.039-.586.117a1.07 1.07 0 00-.394.31 1.263 1.263 0 00-.225.459c-.047.172-.07.355-.07.548zm4.476 0c0-.393.06-.756.178-1.087a2.47 2.47 0 01.52-.853 2.39 2.39 0 01.826-.563 2.799 2.799 0 011.087-.201c.41 0 .775.067 1.097.201.325.135.599.322.82.563.225.237.397.522.516.853.119.331.178.694.178 1.087 0 .394-.06.757-.178 1.088-.119.331-.29.617-.516.858a2.28 2.28 0 01-.82.562 2.824 2.824 0 01-1.097.202c-.403 0-.765-.068-1.087-.202a2.39 2.39 0 01-.825-.562 2.505 2.505 0 01-.52-.858 3.2 3.2 0 01-.179-1.088zm1.383 0c0 .194.02.386.061.577.044.187.114.356.21.506.098.147.224.266.38.356.157.091.35.136.577.136.238 0 .435-.043.59-.13.16-.092.287-.209.38-.352.094-.147.16-.315.197-.502a2.828 2.828 0 000-1.177 1.405 1.405 0 00-.197-.501 1.029 1.029 0 00-.38-.352 1.163 1.163 0 00-.59-.136c-.228 0-.42.046-.576.136-.157.09-.283.211-.38.361a1.534 1.534 0 00-.211.506c-.04.188-.06.379-.06.572zm5.906-1.476h-1.547V23.89h4.416v1.078h-1.547V29h-1.322v-4.031zm3.732-1.078h1.326v1.94l1.913-1.94h1.762l-2.11 2.123 2.2 2.986h-1.73l-1.5-2.156-.535.539V29h-1.326v-5.11zm9.96 4.101c0 .153.008.28.024.38.019.097.042.175.07.234a.38.38 0 00.094.127.45.45 0 00.117.056V29h-1.467a3.016 3.016 0 01-.084-.234c-.029-.1-.043-.22-.043-.361a6.633 6.633 0 01-.304.295c-.097.09-.206.17-.328.24a1.717 1.717 0 01-.422.154c-.16.04-.352.06-.577.06a1.88 1.88 0 01-.633-.102 1.375 1.375 0 01-.496-.296 1.335 1.335 0 01-.329-.492 1.848 1.848 0 01-.117-.684c0-.21.033-.403.099-.582.065-.18.157-.339.276-.473.122-.137.269-.25.44-.337.176-.091.371-.152.587-.183l1.298-.192c.047-.007.097-.016.15-.029a.515.515 0 00.155-.06.397.397 0 00.117-.122.415.415 0 00.047-.211.602.602 0 00-.042-.23.4.4 0 00-.132-.183.64.64 0 00-.253-.122 1.51 1.51 0 00-.389-.042 1.36 1.36 0 00-.43.056.595.595 0 00-.254.15.551.551 0 00-.136.225 1.444 1.444 0 00-.06.272h-1.328c0-.062.01-.148.029-.258.022-.112.059-.234.112-.365.056-.131.133-.264.23-.399.1-.134.23-.256.389-.365.162-.113.36-.205.59-.277.232-.072.508-.11.83-.112.456 0 .825.047 1.106.14.285.09.505.211.661.361.16.147.266.313.32.497.055.181.084.363.084.544v2.71zm-1.326-1.486a4.393 4.393 0 01-.244.122 1.622 1.622 0 01-.323.09l-.352.065c-.153.028-.287.06-.403.098a.91.91 0 00-.29.15.599.599 0 00-.174.22.835.835 0 00-.056.329c0 .11.017.204.051.286a.567.567 0 00.14.197c.063.05.135.087.217.112a.888.888 0 00.262.037c.05 0 .114-.004.192-.014a1.395 1.395 0 00.511-.192.954.954 0 00.235-.215 1.1 1.1 0 00.168-.32c.044-.127.066-.277.066-.45v-.515zm6.942-.473h1.266a2.04 2.04 0 00-.085-.44 1.15 1.15 0 00-.178-.371.87.87 0 00-.29-.253.812.812 0 00-.408-.099c-.144 0-.267.02-.37.057a.665.665 0 00-.258.159.804.804 0 00-.17.258 1.62 1.62 0 00-.102.351h-1.383c.022-.256.07-.48.145-.675.078-.197.175-.367.29-.51.12-.148.253-.27.4-.366.15-.097.306-.175.468-.235.163-.062.327-.106.492-.13.17-.026.332-.038.488-.038.362 0 .689.059.98.178.29.119.535.293.735.525.204.228.358.51.465.848.109.335.164.719.164 1.153 0 .435-.054.82-.16 1.158a2.284 2.284 0 01-.46.853c-.2.228-.45.402-.75.52-.3.12-.643.179-1.03.179a2.444 2.444 0 01-1.393-.408 2.044 2.044 0 01-.426-.408 2.612 2.612 0 01-.272-.455 2.309 2.309 0 01-.15-.422 1.688 1.688 0 01-.042-.332h1.383a.899.899 0 00.22.572 1 1 0 00.281.23.848.848 0 00.399.088.953.953 0 00.412-.084.965.965 0 00.31-.234c.084-.1.15-.218.196-.352a1.74 1.74 0 00.099-.431h-1.266v-.886zm3.652-2.142h1.326v1.94l1.913-1.94h1.762l-2.11 2.123 2.2 2.986h-1.73l-1.5-2.156-.535.539V29h-1.326v-5.11zm8.826 1.804a1.614 1.614 0 00-.103-.351.764.764 0 00-.173-.258.622.622 0 00-.258-.16 1.046 1.046 0 00-.366-.056c-.222 0-.4.052-.534.155a1.038 1.038 0 00-.305.39 1.79 1.79 0 00-.145.51 4.423 4.423 0 00-.005 1.055c.019.184.063.354.131.51.07.154.17.28.305.38.135.1.319.15.553.15a.85.85 0 00.399-.089.974.974 0 00.28-.23.902.902 0 00.165-.29.83.83 0 00.056-.281h1.383c0 .084-.016.193-.047.328a2.029 2.029 0 01-.145.426c-.069.15-.161.302-.277.455-.112.15-.254.286-.426.408a2.249 2.249 0 01-.596.29 2.444 2.444 0 01-.792.118c-.39 0-.736-.06-1.036-.178a1.964 1.964 0 01-.75-.52 2.376 2.376 0 01-.46-.854 3.965 3.965 0 01-.154-1.158c0-.434.056-.818.169-1.153.116-.337.278-.62.487-.848a2.03 2.03 0 01.755-.525 2.64 2.64 0 01.99-.178c.155 0 .316.012.482.037.169.025.334.069.497.131.162.06.317.138.464.235.15.097.283.219.398.365a1.8 1.8 0 01.291.511c.078.194.128.42.15.675h-1.383zm2.349-1.804h4.598V29h-1.322v-4.031h-1.95V29H75.38v-5.11zm5.83 0h1.267v.73h.018a2.36 2.36 0 01.286-.393 1.386 1.386 0 01.736-.436 2.271 2.271 0 01.99.005c.165.037.326.098.482.183.16.08.31.189.45.323.14.131.264.294.37.488.107.193.191.42.254.68.062.256.093.55.093.88 0 .413-.045.791-.136 1.135a2.532 2.532 0 01-.403.886 1.84 1.84 0 01-.68.576 2.104 2.104 0 01-.96.207c-.129 0-.258-.013-.39-.038a1.515 1.515 0 01-.74-.366 1.554 1.554 0 01-.29-.384h-.02v2.611h-1.326v-7.087zm2.42 1.04c-.213 0-.392.046-.54.136a1.11 1.11 0 00-.35.352 1.606 1.606 0 00-.193.487c-.04.181-.061.361-.061.54 0 .096.005.202.014.318.013.113.034.228.066.347.03.116.073.228.126.337.056.11.127.207.211.291.084.084.186.153.305.206.119.05.26.075.422.075.162 0 .303-.025.422-.075a1.008 1.008 0 00.51-.497c.057-.109.1-.221.132-.337a2.984 2.984 0 00.08-.666c0-.178-.02-.358-.061-.539a1.537 1.537 0 00-.197-.487 1.051 1.051 0 00-.352-.352.999.999 0 00-.534-.136zm4.439 1.927a1.646 1.646 0 00.07.44c.028.091.069.183.122.277a.983.983 0 00.539.431c.131.047.288.07.469.07.093 0 .186-.012.276-.037a1.02 1.02 0 00.258-.117.89.89 0 00.202-.188.69.69 0 00.126-.253h1.374c0 .094-.02.202-.061.324a1.57 1.57 0 01-.188.365 2.14 2.14 0 01-.754.68c-.172.09-.368.164-.586.22a2.858 2.858 0 01-.722.085c-.34 0-.661-.052-.961-.155-.297-.1-.558-.26-.783-.478a2.318 2.318 0 01-.525-.858c-.128-.35-.192-.775-.192-1.275 0-.347.045-.68.136-.998a2.45 2.45 0 01.431-.849 2.11 2.11 0 01.75-.581c.306-.147.673-.22 1.102-.22.453 0 .834.075 1.143.225.31.146.558.356.746.628.19.272.326.6.407.984.082.384.122.811.122 1.28h-3.5zm2.123-.881a1.35 1.35 0 00-.103-.563.964.964 0 00-.253-.356.825.825 0 00-.333-.188 1.193 1.193 0 00-.351-.056c-.11 0-.225.019-.347.056a.863.863 0 00-.338.188 1.04 1.04 0 00-.253.356c-.066.15-.098.338-.098.563h2.076zm5.264-.282a1.614 1.614 0 00-.103-.351.764.764 0 00-.173-.258.622.622 0 00-.258-.16 1.046 1.046 0 00-.366-.056c-.222 0-.4.052-.534.155a1.038 1.038 0 00-.305.39 1.79 1.79 0 00-.145.51 4.423 4.423 0 00-.005 1.055c.019.184.063.354.131.51.07.154.17.28.305.38.135.1.319.15.553.15a.85.85 0 00.399-.089.974.974 0 00.28-.23.902.902 0 00.165-.29.83.83 0 00.056-.281h1.383c0 .084-.016.193-.047.328a2.029 2.029 0 01-.145.426c-.069.15-.161.302-.277.455-.112.15-.254.286-.426.408a2.249 2.249 0 01-.596.29 2.444 2.444 0 01-.792.118c-.39 0-.736-.06-1.036-.178a1.964 1.964 0 01-.75-.52 2.376 2.376 0 01-.46-.854 3.965 3.965 0 01-.154-1.158c0-.434.056-.818.169-1.153.116-.337.278-.62.487-.848a2.03 2.03 0 01.755-.525 2.64 2.64 0 01.99-.178c.156 0 .316.012.482.037.169.025.334.069.497.131.162.06.317.138.464.235.15.097.283.219.398.365a1.8 1.8 0 01.291.511c.078.194.128.42.15.675h-1.383zm5.344 0a1.604 1.604 0 00-.103-.351.768.768 0 00-.174-.258.615.615 0 00-.257-.16 1.047 1.047 0 00-.366-.056c-.222 0-.4.052-.534.155a1.04 1.04 0 00-.305.39c-.072.155-.12.326-.145.51a4.444 4.444 0 00-.005 1.055c.019.184.062.354.131.51.069.154.17.28.305.38.134.1.319.15.553.15a.84.84 0 00.398-.089.97.97 0 00.282-.23.913.913 0 00.164-.29.842.842 0 00.056-.281h1.383c0 .084-.016.193-.047.328a2.062 2.062 0 01-.145.426 2.46 2.46 0 01-.277.455 1.91 1.91 0 01-.426.408 2.259 2.259 0 01-.596.29 2.443 2.443 0 01-.792.118c-.39 0-.736-.06-1.036-.178a1.964 1.964 0 01-.75-.52 2.375 2.375 0 01-.46-.854 3.965 3.965 0 01-.154-1.158c0-.434.056-.818.169-1.153a2.37 2.37 0 01.487-.848 2.03 2.03 0 01.755-.525c.297-.119.626-.178.989-.178.156 0 .317.012.483.037.169.025.334.069.497.131.162.06.317.138.464.235.15.097.283.219.398.365.119.144.216.314.291.511.078.194.128.42.15.675H100.8zm8.016 0a1.66 1.66 0 00-.103-.351.768.768 0 00-.174-.258.625.625 0 00-.258-.16 1.045 1.045 0 00-.365-.056c-.222 0-.4.052-.535.155a1.03 1.03 0 00-.304.39 1.787 1.787 0 00-.146.51 4.404 4.404 0 00-.004 1.055c.018.184.062.354.131.51a.95.95 0 00.305.38c.134.1.318.15.553.15a.84.84 0 00.398-.089.966.966 0 00.281-.23.895.895 0 00.164-.29.821.821 0 00.057-.281h1.382a2.068 2.068 0 01-.192.755c-.068.15-.161.3-.276.454-.113.15-.255.286-.427.408a2.252 2.252 0 01-.595.29 2.443 2.443 0 01-.792.118 2.8 2.8 0 01-1.036-.178 1.963 1.963 0 01-.75-.52 2.388 2.388 0 01-.46-.854 3.969 3.969 0 01-.154-1.158c0-.434.056-.818.168-1.153.116-.337.279-.62.488-.848.209-.232.461-.406.755-.525a2.63 2.63 0 01.989-.178c.156 0 .317.012.482.037.169.025.335.069.497.131.163.06.318.138.464.235a1.793 1.793 0 01.689.877c.079.193.129.418.15.674h-1.382zm6.478 2.297c0 .153.008.28.023.38a.971.971 0 00.071.234.383.383 0 00.093.127.465.465 0 00.117.056V29h-1.467a2.915 2.915 0 01-.084-.234 1.35 1.35 0 01-.042-.361 6.585 6.585 0 01-.305.295c-.097.09-.206.17-.328.24a1.726 1.726 0 01-.422.154 2.4 2.4 0 01-.577.06c-.228 0-.439-.034-.632-.102a1.329 1.329 0 01-.825-.788 1.85 1.85 0 01-.118-.684c0-.21.033-.403.099-.582a1.48 1.48 0 01.276-.473 1.48 1.48 0 01.441-.337 1.82 1.82 0 01.586-.183l1.298-.192c.047-.007.097-.016.15-.029a.51.51 0 00.155-.06.392.392 0 00.117-.122.407.407 0 00.047-.211.604.604 0 00-.042-.23.402.402 0 00-.131-.183.644.644 0 00-.253-.122 1.51 1.51 0 00-.389-.042 1.38 1.38 0 00-.432.056.599.599 0 00-.253.15.556.556 0 00-.136.225 1.492 1.492 0 00-.061.272h-1.326c0-.062.009-.148.028-.258a2.02 2.02 0 01.112-.365c.057-.131.133-.264.23-.399.1-.134.23-.256.389-.365a2.17 2.17 0 01.591-.277c.231-.072.508-.11.829-.112.457 0 .825.047 1.107.14.284.09.504.211.661.361.159.147.265.313.318.497.057.181.085.363.085.544v2.71zm-1.327-1.486a4.078 4.078 0 01-.244.122 1.601 1.601 0 01-.323.09l-.352.065c-.153.028-.287.06-.403.098a.912.912 0 00-.29.15.604.604 0 00-.174.22.845.845 0 00-.056.329c0 .11.017.204.052.286a.564.564 0 00.14.197c.063.05.135.087.216.112a.887.887 0 00.262.037c.05 0 .114-.004.193-.014a1.405 1.405 0 00.51-.192.95.95 0 00.235-.215 1.1 1.1 0 00.169-.32c.043-.127.065-.277.065-.45v-.515zm6.446-4.753c0 .247-.041.458-.122.633a1.162 1.162 0 01-.338.431c-.14.11-.309.19-.506.244-.197.05-.411.075-.642.075-.235 0-.45-.025-.647-.075a1.463 1.463 0 01-.511-.244 1.162 1.162 0 01-.338-.431 1.548 1.548 0 01-.117-.633h.961c.003.088.014.17.033.249a.544.544 0 00.098.201.54.54 0 00.197.136.948.948 0 00.324.047c.128 0 .234-.013.318-.038a.477.477 0 00.207-.121.429.429 0 00.103-.197c.019-.078.026-.17.023-.277h.957zm-3.905 2.138h1.326v3.15h.019l1.861-3.15h1.392V29h-1.322v-3.08h-.023L117.956 29h-1.448v-5.11zm6.975 1.078h-1.547V23.89h4.416v1.078h-1.547V29h-1.322v-4.031zm3.389 1.476c0-.393.059-.756.178-1.087.122-.331.295-.616.52-.853.228-.24.503-.428.825-.563a2.802 2.802 0 011.088-.201c.409 0 .775.067 1.097.201.325.135.598.322.82.563.225.237.397.522.516.853.118.331.178.694.178 1.087 0 .394-.06.757-.178 1.088a2.453 2.453 0 01-.516.858c-.222.24-.495.428-.82.562a2.827 2.827 0 01-1.097.202 2.81 2.81 0 01-1.088-.202 2.388 2.388 0 01-.825-.562 2.507 2.507 0 01-.52-.858 3.195 3.195 0 01-.178-1.088zm1.383 0c0 .194.02.386.061.577.043.187.114.356.211.506.096.147.223.266.379.356.157.091.349.136.577.136.237 0 .434-.043.59-.13.16-.092.286-.209.38-.352.094-.147.16-.315.197-.502.041-.19.061-.388.061-.59 0-.2-.02-.396-.061-.587a1.39 1.39 0 00-.197-.501 1.027 1.027 0 00-.38-.352 1.162 1.162 0 00-.59-.136c-.228 0-.42.046-.577.136-.156.09-.283.211-.379.361a1.515 1.515 0 00-.211.506 2.67 2.67 0 00-.061.572zm6.164-.548h1.022a1.8 1.8 0 00.375-.033c.1-.025.178-.06.234-.103a.36.36 0 00.122-.169.7.7 0 000-.445.343.343 0 00-.117-.164.592.592 0 00-.225-.108 1.247 1.247 0 00-.352-.042h-1.059v1.064zm-1.327-2.006h2.644c.234 0 .459.02.675.06.219.041.411.113.577.216.165.1.296.238.393.413.1.172.15.39.15.656 0 .153-.017.286-.051.398a.957.957 0 01-.132.291.92.92 0 01-.196.202 1.403 1.403 0 01-.225.136c.256.09.451.235.586.435.134.197.201.433.201.708 0 .24-.042.46-.126.657a1.43 1.43 0 01-.352.501c-.15.138-.334.245-.553.323a2.206 2.206 0 01-.727.113h-2.864v-5.11zm1.327 4.167h1.022c.19 0 .343-.02.459-.061a.703.703 0 00.272-.155.418.418 0 00.126-.206.807.807 0 00-.018-.52.419.419 0 00-.155-.202.642.642 0 00-.277-.103 2.52 2.52 0 00-.407-.028h-1.022v1.275z" fill="#0094FF" fill-opacity=".6"/></svg>