<svg width="160" height="31" viewBox="0 0 160 31" fill="none" xmlns="http://www.w3.org/2000/svg">
<path d="M9.14241 9.9507L3.13751 0.760563H0V18H4.21797L4.17642 9.29577L7.97883 15.2746H10.306L14.0876 9.35915V18H18.2848V0.760563H15.1473L9.14241 9.9507Z" fill="#FFFDF7"/>
<path d="M27.2818 5.0493C23.4378 5.0493 20.6328 7.8169 20.6328 11.5141C20.6328 15.2746 23.4586 18 27.2818 18C31.0842 18 33.91 15.2746 33.91 11.5141C33.91 7.79577 31.0842 5.0493 27.2818 5.0493ZM27.2818 14.5141C25.578 14.5141 24.4767 13.2465 24.4767 11.5141C24.4767 9.84507 25.5987 8.49296 27.2818 8.49296C28.944 8.49296 30.0661 9.84507 30.0661 11.5141C30.0661 13.2465 28.944 14.5141 27.2818 14.5141Z" fill="#FFFDF7"/>
<path d="M43.2602 5.3662C41.972 5.3662 40.9123 5.76761 39.9357 6.50704V5.70423H35.8632V18H39.9357V10.2676C40.6422 9.48592 41.411 9.10563 42.1382 9.10563C43.4888 9.10563 44.3615 9.88732 44.3615 11.6408V18H48.3924V10.9648C48.3924 7.47887 46.2938 5.3662 43.2602 5.3662Z" fill="#FFFDF7"/>
<path d="M56.9738 5.0493C53.1299 5.0493 50.3248 7.8169 50.3248 11.5141C50.3248 15.2746 53.1506 18 56.9738 18C60.7762 18 63.6021 15.2746 63.6021 11.5141C63.6021 7.79577 60.7762 5.0493 56.9738 5.0493ZM56.9738 14.5141C55.27 14.5141 54.1688 13.2465 54.1688 11.5141C54.1688 9.84507 55.2908 8.49296 56.9738 8.49296C58.6361 8.49296 59.7581 9.84507 59.7581 11.5141C59.7581 13.2465 58.6361 14.5141 56.9738 14.5141Z" fill="#FFFDF7"/>
<path d="M80.6194 5.3662C78.8325 5.3662 77.6066 5.85211 76.3183 6.99296C75.4249 5.95775 74.1158 5.3662 72.599 5.3662C71.2692 5.3662 70.4381 5.72535 69.6277 6.40141V5.70423H65.5552V18H69.6277V10.1197C70.2095 9.38028 70.8329 9.10563 71.4147 9.10563C72.7237 9.10563 73.5756 9.88732 73.5756 11.6408V18H77.6066V10.9648C77.6066 10.669 77.5858 10.3521 77.565 10.0775C78.1676 9.33803 78.7909 9.08451 79.4143 9.08451C80.7441 9.08451 81.5752 9.8662 81.5752 11.6197V17.9789H85.6062V10.9648C85.627 7.47887 83.5284 5.3662 80.6194 5.3662Z" fill="#FFFDF7"/>
<path d="M94.2291 5.0493C90.3852 5.0493 87.5801 7.8169 87.5801 11.5141C87.5801 15.2746 90.4059 18 94.2291 18C98.0315 18 100.857 15.2746 100.857 11.5141C100.857 7.79577 98.0315 5.0493 94.2291 5.0493ZM94.2291 14.5141C92.5253 14.5141 91.4241 13.2465 91.4241 11.5141C91.4241 9.84507 92.5461 8.49296 94.2291 8.49296C95.8914 8.49296 97.0134 9.84507 97.0134 11.5141C97.0134 13.2465 95.8914 14.5141 94.2291 14.5141Z" fill="#FFFDF7"/>
<path d="M107.049 0H102.977V18H107.049V0Z" fill="#FFFDF7"/>
<path d="M115.818 5.0493C111.974 5.0493 109.169 7.8169 109.169 11.5141C109.169 15.2746 111.994 18 115.818 18C119.62 18 122.446 15.2746 122.446 11.5141C122.446 7.79577 119.62 5.0493 115.818 5.0493ZM115.818 14.5141C114.114 14.5141 113.013 13.2465 113.013 11.5141C113.013 9.84507 114.135 8.49296 115.818 8.49296C117.48 8.49296 118.602 9.84507 118.602 11.5141C118.602 13.2465 117.48 14.5141 115.818 14.5141Z" fill="#FFFDF7"/>
<path d="M130.736 8.53521C131.962 8.53521 132.897 9.3169 133.105 10.4366H136.908C136.617 7.26761 134.04 5.07042 130.695 5.07042C126.913 5.07042 124.087 7.8169 124.087 11.5352C124.087 15.2958 126.913 18 130.695 18C134.04 18 136.596 15.8239 136.908 12.6549H133.105C132.897 13.7746 131.962 14.5352 130.736 14.5352C128.991 14.5352 127.973 13.2254 127.973 11.5352C127.973 9.84507 128.991 8.53521 130.736 8.53521Z" fill="#FFFDF7"/>
<path d="M145.219 5.0493C141.375 5.0493 138.57 7.8169 138.57 11.5141C138.57 15.2746 141.396 18 145.219 18C149.021 18 151.847 15.2746 151.847 11.5141C151.847 7.79577 149.021 5.0493 145.219 5.0493ZM145.219 14.5141C143.515 14.5141 142.414 13.2465 142.414 11.5141C142.414 9.84507 143.536 8.49296 145.219 8.49296C146.881 8.49296 148.003 9.84507 148.003 11.5141C148.003 13.2465 146.881 14.5141 145.219 14.5141Z" fill="#FFFDF7"/>
<path d="M157.79 6.19014C157.727 6.12676 157.644 6.08451 157.54 6.04225C157.79 6.02113 157.997 5.93662 158.143 5.76761C158.288 5.59859 158.371 5.40845 158.371 5.19718C158.371 5.0493 158.33 4.90141 158.226 4.75352C158.143 4.62676 158.018 4.52113 157.852 4.45775C157.707 4.39437 157.457 4.37324 157.104 4.37324H156.107V7.33099H156.585V6.06338H156.855C157.021 6.06338 157.146 6.10563 157.229 6.16901C157.353 6.25352 157.52 6.48592 157.727 6.8662L157.977 7.33099H158.558L158.205 6.76056C158.06 6.50704 157.914 6.3169 157.79 6.19014ZM157.166 5.70423H156.605V4.79577H157.146C157.374 4.79577 157.54 4.8169 157.623 4.83803C157.707 4.85915 157.769 4.92253 157.831 4.98591C157.894 5.0493 157.894 5.1338 157.894 5.21831C157.894 5.34507 157.852 5.47183 157.748 5.55634C157.644 5.64084 157.457 5.70423 157.166 5.70423Z" fill="#FFFDF7"/>
<path d="M159.66 4.45775C159.41 4.01408 159.078 3.67606 158.642 3.44366C158.205 3.21127 157.769 3.08451 157.312 3.08451C156.855 3.08451 156.418 3.21127 155.982 3.44366C155.546 3.67606 155.213 4.01408 154.964 4.45775C154.714 4.90141 154.59 5.3662 154.59 5.83099C154.59 6.29577 154.714 6.76056 154.943 7.20423C155.192 7.64789 155.525 7.98592 155.94 8.21831C156.377 8.4507 156.813 8.57746 157.291 8.57746C157.769 8.57746 158.205 8.4507 158.642 8.21831C159.078 7.98592 159.41 7.62676 159.639 7.20423C159.867 6.76056 159.992 6.3169 159.992 5.83099C160.034 5.3662 159.909 4.90141 159.66 4.45775ZM159.286 6.99296C159.078 7.35211 158.808 7.64789 158.455 7.83803C158.101 8.0493 157.727 8.1338 157.333 8.1338C156.938 8.1338 156.564 8.02817 156.21 7.83803C155.857 7.62676 155.566 7.35211 155.379 6.99296C155.172 6.6338 155.088 6.25352 155.088 5.85211C155.088 5.4507 155.192 5.07042 155.4 4.69014C155.608 4.33099 155.878 4.03521 156.252 3.84507C156.605 3.65493 156.979 3.5493 157.374 3.5493C157.748 3.5493 158.122 3.65493 158.475 3.84507C158.829 4.03521 159.119 4.33099 159.327 4.69014C159.535 5.0493 159.639 5.4507 159.639 5.85211C159.577 6.23239 159.493 6.61268 159.286 6.99296Z" fill="#FFFDF7"/>
<path d="M56.9738 3.76056C57.8049 3.76056 58.366 3.12676 58.366 2.26056C58.366 1.41549 57.8049 0.760563 56.9738 0.760563C56.1219 0.760563 55.5609 1.43662 55.5609 2.26056C55.5609 3.12676 56.1219 3.76056 56.9738 3.76056Z" fill="#FFFDF7"/>
<path d="M3.51563 25.3344C4.00313 25.3344 4.35469 25.2312 4.57031 25.025C4.78594 24.8187 4.89375 24.5187 4.89375 24.125C4.89375 23.7312 4.78594 23.4312 4.57031 23.225C4.35469 23.0187 4.00313 22.9156 3.51563 22.9156H1.63125V25.3344H3.51563ZM0.7125 22.1094H3.60938C3.9875 22.1094 4.31406 22.1578 4.58906 22.2547C4.86719 22.3516 5.09688 22.4891 5.27813 22.6672C5.45938 22.8422 5.59375 23.0531 5.68125 23.3C5.77188 23.5469 5.81719 23.8219 5.81719 24.125C5.81719 24.4281 5.77188 24.7031 5.68125 24.95C5.59375 25.1969 5.45938 25.4094 5.27813 25.5875C5.09688 25.7625 4.86719 25.8984 4.58906 25.9953C4.31406 26.0922 3.9875 26.1406 3.60938 26.1406H1.63125V29H0.7125V22.1094ZM7.02656 25.4844C7.03594 25.1781 7.09375 24.9203 7.2 24.7109C7.30625 24.4984 7.45 24.3266 7.63125 24.1953C7.8125 24.0641 8.02656 23.9703 8.27344 23.9141C8.52344 23.8547 8.79531 23.825 9.08906 23.825C9.33281 23.825 9.56875 23.85 9.79688 23.9C10.0281 23.95 10.2328 24.0312 10.4109 24.1437C10.5891 24.2531 10.7313 24.3969 10.8375 24.575C10.9469 24.75 11.0016 24.9641 11.0016 25.2172V28.1375C11.0016 28.2187 11.0234 28.2891 11.0672 28.3484C11.1109 28.4047 11.1813 28.4328 11.2781 28.4328C11.3219 28.4328 11.3672 28.4297 11.4141 28.4234C11.4609 28.4141 11.5094 28.4047 11.5594 28.3953V28.9906C11.4875 29.0094 11.4156 29.0266 11.3438 29.0422C11.275 29.0578 11.1922 29.0656 11.0953 29.0656C10.9453 29.0656 10.8156 29.0531 10.7063 29.0281C10.6 29.0031 10.5094 28.9625 10.4344 28.9062C10.3625 28.8469 10.3063 28.7719 10.2656 28.6812C10.225 28.5875 10.1984 28.4734 10.1859 28.3391C10.0797 28.4547 9.96719 28.5625 9.84844 28.6625C9.72969 28.7594 9.59688 28.8453 9.45 28.9203C9.30313 28.9922 9.13906 29.0484 8.95781 29.0891C8.77656 29.1328 8.57188 29.1547 8.34375 29.1547C8.15 29.1547 7.96094 29.1234 7.77656 29.0609C7.59531 28.9984 7.43125 28.9062 7.28438 28.7844C7.14063 28.6625 7.025 28.5125 6.9375 28.3344C6.85 28.1531 6.80625 27.9437 6.80625 27.7062C6.80625 27.4469 6.85 27.2234 6.9375 27.0359C7.025 26.8453 7.13906 26.6875 7.27969 26.5625C7.42031 26.4344 7.58125 26.3359 7.7625 26.2672C7.94375 26.1984 8.12813 26.1531 8.31563 26.1312L9.72656 25.9578C9.86094 25.9422 9.96563 25.8906 10.0406 25.8031C10.1188 25.7125 10.1578 25.5687 10.1578 25.3719C10.1578 25.0687 10.0578 24.8516 9.85781 24.7203C9.66094 24.5859 9.37656 24.5187 9.00469 24.5187C8.62344 24.5187 8.33906 24.6 8.15156 24.7625C7.96406 24.9219 7.85781 25.1625 7.83281 25.4844H7.02656ZM10.1391 26.4453C10.0703 26.4953 9.98438 26.5375 9.88125 26.5719C9.78125 26.6031 9.67031 26.6297 9.54844 26.6516C9.42656 26.6734 9.29688 26.6937 9.15938 26.7125C9.02188 26.7281 8.88438 26.7453 8.74688 26.7641C8.59063 26.7859 8.44688 26.8172 8.31563 26.8578C8.18438 26.8984 8.07031 26.9516 7.97344 27.0172C7.87656 27.0828 7.80156 27.1625 7.74844 27.2562C7.69531 27.3469 7.66875 27.4547 7.66875 27.5797C7.66875 27.7234 7.69063 27.85 7.73438 27.9594C7.78125 28.0687 7.84375 28.1609 7.92188 28.2359C8.00313 28.3109 8.1 28.3672 8.2125 28.4047C8.325 28.4422 8.44844 28.4609 8.58281 28.4609C8.66719 28.4609 8.76406 28.4516 8.87344 28.4328C8.98281 28.4109 9.09531 28.3797 9.21094 28.3391C9.32656 28.2984 9.43906 28.2469 9.54844 28.1844C9.66094 28.1187 9.76094 28.0406 9.84844 27.95C9.93594 27.8594 10.0063 27.7562 10.0594 27.6406C10.1125 27.525 10.1391 27.3953 10.1391 27.2516V26.4453ZM13.6781 26.0984H14.1141C14.2297 26.0984 14.35 26.0844 14.475 26.0562C14.6 26.0281 14.7141 25.9844 14.8172 25.925C14.9203 25.8625 15.0047 25.7828 15.0703 25.6859C15.1391 25.5891 15.1734 25.4719 15.1734 25.3344C15.1734 25.2344 15.1516 25.1391 15.1078 25.0484C15.0672 24.9547 15.0047 24.8734 14.9203 24.8047C14.8391 24.7328 14.7359 24.6766 14.6109 24.6359C14.4859 24.5953 14.3406 24.575 14.175 24.575C14.0875 24.575 13.9844 24.5875 13.8656 24.6125C13.7469 24.6375 13.6297 24.6844 13.5141 24.7531C13.4016 24.8187 13.3 24.9141 13.2094 25.0391C13.1219 25.1609 13.0656 25.3203 13.0406 25.5172H12.2344C12.2563 25.2922 12.3016 25.0953 12.3703 24.9266C12.4391 24.7547 12.525 24.6062 12.6281 24.4812C12.7313 24.3562 12.8469 24.2516 12.975 24.1672C13.1063 24.0828 13.2406 24.0156 13.3781 23.9656C13.5188 23.9156 13.6594 23.8797 13.8 23.8578C13.9406 23.8359 14.075 23.825 14.2031 23.825C14.4281 23.825 14.65 23.8547 14.8688 23.9141C15.0875 23.9703 15.2828 24.0578 15.4547 24.1766C15.6297 24.2922 15.7703 24.4391 15.8766 24.6172C15.9828 24.7953 16.0359 25.0031 16.0359 25.2406C16.0359 25.3937 16.0141 25.5297 15.9703 25.6484C15.9266 25.7641 15.8688 25.8656 15.7969 25.9531C15.7281 26.0406 15.65 26.1156 15.5625 26.1781C15.475 26.2375 15.3891 26.2875 15.3047 26.3281V26.3516C15.3922 26.3672 15.4891 26.4 15.5953 26.45C15.7016 26.4969 15.8 26.5656 15.8906 26.6562C15.9813 26.7437 16.0563 26.8578 16.1156 26.9984C16.1781 27.1359 16.2094 27.3047 16.2094 27.5047C16.2094 27.7859 16.1484 28.0297 16.0266 28.2359C15.9078 28.4422 15.7516 28.6141 15.5578 28.7516C15.3641 28.8859 15.1453 28.9859 14.9016 29.0516C14.6578 29.1203 14.4125 29.1547 14.1656 29.1547C13.8469 29.1547 13.5578 29.1141 13.2984 29.0328C13.0422 28.9516 12.8203 28.8359 12.6328 28.6859C12.4453 28.5359 12.2953 28.3562 12.1828 28.1469C12.0734 27.9375 12.0078 27.7062 11.9859 27.4531H12.8531C12.875 27.6375 12.9281 27.7906 13.0125 27.9125C13.0969 28.0344 13.1984 28.1312 13.3172 28.2031C13.4359 28.275 13.5672 28.3266 13.7109 28.3578C13.8578 28.3891 14.0063 28.4047 14.1563 28.4047C14.5531 28.4047 14.85 28.325 15.0469 28.1656C15.2469 28.0062 15.3469 27.7922 15.3469 27.5234C15.3469 27.4078 15.3281 27.3047 15.2906 27.2141C15.2563 27.1234 15.1969 27.0469 15.1125 26.9844C15.0281 26.9187 14.9156 26.8703 14.775 26.8391C14.6375 26.8047 14.4656 26.7875 14.2594 26.7875C14.2188 26.7875 14.1719 26.7891 14.1188 26.7922C14.0688 26.7922 14.0172 26.7937 13.9641 26.7969C13.9141 26.8 13.8641 26.8047 13.8141 26.8109C13.7641 26.8141 13.7188 26.8172 13.6781 26.8203V26.0984ZM17.1328 23.9797H17.9953V24.6687H18.0141C18.0703 24.5531 18.1406 24.4437 18.225 24.3406C18.3125 24.2375 18.4156 24.1484 18.5344 24.0734C18.6563 23.9953 18.7953 23.9344 18.9516 23.8906C19.1109 23.8469 19.2922 23.825 19.4953 23.825C19.7641 23.825 20.0219 23.8766 20.2688 23.9797C20.5156 24.0828 20.7344 24.2375 20.925 24.4437C21.1156 24.65 21.2672 24.9094 21.3797 25.2219C21.4922 25.5312 21.5484 25.8922 21.5484 26.3047C21.5484 26.8203 21.4953 27.2594 21.3891 27.6219C21.2859 27.9812 21.1375 28.275 20.9438 28.5031C20.7531 28.7312 20.5219 28.8969 20.25 29C19.9781 29.1031 19.675 29.1547 19.3406 29.1547C19.175 29.1547 19.0203 29.1328 18.8766 29.0891C18.7328 29.0453 18.6031 28.9891 18.4875 28.9203C18.375 28.8484 18.2781 28.7703 18.1969 28.6859C18.1156 28.5984 18.0547 28.5141 18.0141 28.4328H17.9953V30.9781H17.1328V23.9797ZM17.9766 26.5156C17.9766 26.7875 18.0031 27.0391 18.0563 27.2703C18.1094 27.4984 18.1906 27.6969 18.3 27.8656C18.4125 28.0344 18.5516 28.1672 18.7172 28.2641C18.8859 28.3578 19.0844 28.4047 19.3125 28.4047C19.55 28.4047 19.7547 28.3578 19.9266 28.2641C20.1016 28.1672 20.2453 28.0344 20.3578 27.8656C20.4703 27.6969 20.5531 27.4984 20.6063 27.2703C20.6594 27.0391 20.6859 26.7875 20.6859 26.5156C20.6859 26.2312 20.6594 25.9703 20.6063 25.7328C20.5531 25.4953 20.4703 25.2906 20.3578 25.1187C20.2453 24.9469 20.1016 24.8141 19.9266 24.7203C19.7547 24.6234 19.55 24.575 19.3125 24.575C19.0844 24.575 18.8859 24.6234 18.7172 24.7203C18.5516 24.8141 18.4125 24.9469 18.3 25.1187C18.1906 25.2906 18.1094 25.4953 18.0563 25.7328C18.0031 25.9703 17.9766 26.2312 17.9766 26.5156ZM22.5141 25.4844C22.5234 25.1781 22.5813 24.9203 22.6875 24.7109C22.7938 24.4984 22.9375 24.3266 23.1188 24.1953C23.3 24.0641 23.5141 23.9703 23.7609 23.9141C24.0109 23.8547 24.2828 23.825 24.5766 23.825C24.8203 23.825 25.0563 23.85 25.2844 23.9C25.5156 23.95 25.7203 24.0312 25.8984 24.1437C26.0766 24.2531 26.2188 24.3969 26.325 24.575C26.4344 24.75 26.4891 24.9641 26.4891 25.2172V28.1375C26.4891 28.2187 26.5109 28.2891 26.5547 28.3484C26.5984 28.4047 26.6688 28.4328 26.7656 28.4328C26.8094 28.4328 26.8547 28.4297 26.9016 28.4234C26.9484 28.4141 26.9969 28.4047 27.0469 28.3953V28.9906C26.975 29.0094 26.9031 29.0266 26.8313 29.0422C26.7625 29.0578 26.6797 29.0656 26.5828 29.0656C26.4328 29.0656 26.3031 29.0531 26.1938 29.0281C26.0875 29.0031 25.9969 28.9625 25.9219 28.9062C25.85 28.8469 25.7938 28.7719 25.7531 28.6812C25.7125 28.5875 25.6859 28.4734 25.6734 28.3391C25.5672 28.4547 25.4547 28.5625 25.3359 28.6625C25.2172 28.7594 25.0844 28.8453 24.9375 28.9203C24.7906 28.9922 24.6266 29.0484 24.4453 29.0891C24.2641 29.1328 24.0594 29.1547 23.8313 29.1547C23.6375 29.1547 23.4484 29.1234 23.2641 29.0609C23.0828 28.9984 22.9188 28.9062 22.7719 28.7844C22.6281 28.6625 22.5125 28.5125 22.425 28.3344C22.3375 28.1531 22.2938 27.9437 22.2938 27.7062C22.2938 27.4469 22.3375 27.2234 22.425 27.0359C22.5125 26.8453 22.6266 26.6875 22.7672 26.5625C22.9078 26.4344 23.0688 26.3359 23.25 26.2672C23.4313 26.1984 23.6156 26.1531 23.8031 26.1312L25.2141 25.9578C25.3484 25.9422 25.4531 25.8906 25.5281 25.8031C25.6063 25.7125 25.6453 25.5687 25.6453 25.3719C25.6453 25.0687 25.5453 24.8516 25.3453 24.7203C25.1484 24.5859 24.8641 24.5187 24.4922 24.5187C24.1109 24.5187 23.8266 24.6 23.6391 24.7625C23.4516 24.9219 23.3453 25.1625 23.3203 25.4844H22.5141ZM25.6266 26.4453C25.5578 26.4953 25.4719 26.5375 25.3688 26.5719C25.2688 26.6031 25.1578 26.6297 25.0359 26.6516C24.9141 26.6734 24.7844 26.6937 24.6469 26.7125C24.5094 26.7281 24.3719 26.7453 24.2344 26.7641C24.0781 26.7859 23.9344 26.8172 23.8031 26.8578C23.6719 26.8984 23.5578 26.9516 23.4609 27.0172C23.3641 27.0828 23.2891 27.1625 23.2359 27.2562C23.1828 27.3469 23.1563 27.4547 23.1563 27.5797C23.1563 27.7234 23.1781 27.85 23.2219 27.9594C23.2688 28.0687 23.3313 28.1609 23.4094 28.2359C23.4906 28.3109 23.5875 28.3672 23.7 28.4047C23.8125 28.4422 23.9359 28.4609 24.0703 28.4609C24.1547 28.4609 24.2516 28.4516 24.3609 28.4328C24.4703 28.4109 24.5828 28.3797 24.6984 28.3391C24.8141 28.2984 24.9266 28.2469 25.0359 28.1844C25.1484 28.1187 25.2484 28.0406 25.3359 27.95C25.4234 27.8594 25.4938 27.7562 25.5469 27.6406C25.6 27.525 25.6266 27.3953 25.6266 27.2516V26.4453ZM31.7672 22.0484C31.7609 22.0953 31.7516 22.1531 31.7391 22.2219C31.7297 22.2875 31.7094 22.3578 31.6781 22.4328C31.6469 22.5078 31.6031 22.5844 31.5469 22.6625C31.4938 22.7375 31.4219 22.8078 31.3313 22.8734C31.2813 22.9078 31.2359 22.9375 31.1953 22.9625C31.1547 22.9875 31.1031 23.0094 31.0406 23.0281C30.9781 23.0469 30.8984 23.0625 30.8016 23.075C30.7047 23.0875 30.575 23.0953 30.4125 23.0984L30.0563 23.1078C29.8125 23.1141 29.5922 23.1641 29.3953 23.2578C29.2016 23.3484 29.0297 23.4766 28.8797 23.6422C28.7328 23.8047 28.6109 24.0016 28.5141 24.2328C28.4172 24.4641 28.3453 24.7219 28.2984 25.0062C28.3641 24.8812 28.4453 24.7594 28.5422 24.6406C28.6391 24.5187 28.7594 24.4109 28.9031 24.3172C29.0469 24.2203 29.2156 24.1437 29.4094 24.0875C29.6031 24.0281 29.8281 23.9984 30.0844 23.9984C30.375 23.9984 30.65 24.05 30.9094 24.1531C31.1719 24.2562 31.4 24.4109 31.5938 24.6172C31.7906 24.8234 31.9469 25.0797 32.0625 25.3859C32.1781 25.6922 32.2359 26.0484 32.2359 26.4547C32.2359 26.5828 32.2266 26.7391 32.2078 26.9234C32.1891 27.1047 32.1516 27.2953 32.0953 27.4953C32.0391 27.6953 31.9578 27.8953 31.8516 28.0953C31.7484 28.2922 31.6094 28.4687 31.4344 28.625C31.2625 28.7812 31.0516 28.9078 30.8016 29.0047C30.5547 29.1047 30.2578 29.1547 29.9109 29.1547C29.7672 29.1547 29.6141 29.1422 29.4516 29.1172C29.2922 29.0953 29.1313 29.0531 28.9688 28.9906C28.8094 28.9281 28.6531 28.8406 28.5 28.7281C28.35 28.6156 28.2125 28.4719 28.0875 28.2969C28.025 28.2094 27.9625 28.1094 27.9 27.9969C27.8406 27.8812 27.7859 27.7422 27.7359 27.5797C27.6859 27.4172 27.6453 27.225 27.6141 27.0031C27.5859 26.7812 27.5719 26.5187 27.5719 26.2156C27.5719 26.0156 27.5813 25.7891 27.6 25.5359C27.6188 25.2828 27.6516 25.025 27.6984 24.7625C27.7453 24.5 27.8078 24.2469 27.8859 24.0031C27.9641 23.7562 28.0641 23.5406 28.1859 23.3562C28.3172 23.1562 28.4547 22.9937 28.5984 22.8687C28.7422 22.7437 28.8953 22.6453 29.0578 22.5734C29.2203 22.5016 29.3953 22.45 29.5828 22.4187C29.7703 22.3875 29.9734 22.3672 30.1922 22.3578L30.4969 22.3484C30.5969 22.3453 30.6813 22.3406 30.75 22.3344C30.8219 22.325 30.8813 22.3109 30.9281 22.2922C30.975 22.2734 31.0125 22.2453 31.0406 22.2078C31.0688 22.1703 31.0922 22.1172 31.1109 22.0484H31.7672ZM28.4344 26.5812C28.4344 26.675 28.4391 26.7859 28.4484 26.9141C28.4609 27.0422 28.4844 27.1766 28.5188 27.3172C28.5531 27.4547 28.6031 27.5922 28.6688 27.7297C28.7344 27.8672 28.8203 27.9906 28.9266 28.1C29.0359 28.2062 29.1703 28.2937 29.3297 28.3625C29.4891 28.4281 29.6797 28.4609 29.9016 28.4609C30.1484 28.4609 30.3563 28.4219 30.525 28.3437C30.6938 28.2625 30.8328 28.1594 30.9422 28.0344C31.0516 27.9062 31.1344 27.7656 31.1906 27.6125C31.25 27.4594 31.2922 27.3109 31.3172 27.1672C31.3453 27.0203 31.3609 26.8875 31.3641 26.7687C31.3703 26.6469 31.3734 26.5547 31.3734 26.4922C31.3734 26.2641 31.3469 26.0406 31.2938 25.8219C31.2438 25.6031 31.1609 25.4094 31.0453 25.2406C30.9328 25.0719 30.7844 24.9359 30.6 24.8328C30.4188 24.7297 30.1953 24.6781 29.9297 24.6781C29.6703 24.6781 29.4469 24.7297 29.2594 24.8328C29.0719 24.9328 28.9172 25.0703 28.7953 25.2453C28.6734 25.4172 28.5828 25.6187 28.5234 25.85C28.4641 26.0781 28.4344 26.3219 28.4344 26.5812ZM36.7172 26.4828C36.7172 26.2047 36.6859 25.95 36.6234 25.7187C36.5609 25.4844 36.4672 25.2828 36.3422 25.1141C36.2172 24.9453 36.0625 24.8141 35.8781 24.7203C35.6969 24.6234 35.4859 24.575 35.2453 24.575C35.0047 24.575 34.7938 24.6234 34.6125 24.7203C34.4313 24.8141 34.2781 24.9453 34.1531 25.1141C34.0281 25.2828 33.9344 25.4844 33.8719 25.7187C33.8094 25.95 33.7781 26.2047 33.7781 26.4828C33.7781 26.7641 33.8094 27.0234 33.8719 27.2609C33.9344 27.4953 34.0281 27.6969 34.1531 27.8656C34.2781 28.0344 34.4313 28.1672 34.6125 28.2641C34.7938 28.3578 35.0047 28.4047 35.2453 28.4047C35.4859 28.4047 35.6969 28.3578 35.8781 28.2641C36.0625 28.1672 36.2172 28.0344 36.3422 27.8656C36.4672 27.6969 36.5609 27.4953 36.6234 27.2609C36.6859 27.0234 36.7172 26.7641 36.7172 26.4828ZM37.5797 26.4828C37.5797 26.8953 37.5266 27.2672 37.4203 27.5984C37.3141 27.9266 37.1609 28.2062 36.9609 28.4375C36.7609 28.6687 36.5156 28.8469 36.225 28.9719C35.9375 29.0938 35.6109 29.1547 35.2453 29.1547C34.8797 29.1547 34.5531 29.0938 34.2656 28.9719C33.9781 28.8469 33.7344 28.6687 33.5344 28.4375C33.3344 28.2062 33.1813 27.9266 33.075 27.5984C32.9688 27.2672 32.9156 26.8953 32.9156 26.4828C32.9156 26.0766 32.9688 25.7094 33.075 25.3812C33.1813 25.0531 33.3344 24.7734 33.5344 24.5422C33.7344 24.3109 33.9781 24.1344 34.2656 24.0125C34.5531 23.8875 34.8797 23.825 35.2453 23.825C35.6109 23.825 35.9375 23.8875 36.225 24.0125C36.5156 24.1344 36.7609 24.3109 36.9609 24.5422C37.1609 24.7734 37.3141 25.0531 37.4203 25.3812C37.5266 25.7094 37.5797 26.0766 37.5797 26.4828ZM39.8906 24.7297H38.1609V23.9797H42.4828V24.7297H40.7531V29H39.8906V24.7297ZM43.3547 23.9797H44.2172V26.4078L46.7531 23.9797H47.8828L45.525 26.1969L47.9203 29H46.8094L44.85 26.7219L44.2172 27.2516V29H43.3547V23.9797ZM48.6047 25.4844C48.6141 25.1781 48.6719 24.9203 48.7781 24.7109C48.8844 24.4984 49.0281 24.3266 49.2094 24.1953C49.3906 24.0641 49.6047 23.9703 49.8516 23.9141C50.1016 23.8547 50.3734 23.825 50.6672 23.825C50.9109 23.825 51.1469 23.85 51.375 23.9C51.6063 23.95 51.8109 24.0312 51.9891 24.1437C52.1672 24.2531 52.3094 24.3969 52.4156 24.575C52.525 24.75 52.5797 24.9641 52.5797 25.2172V28.1375C52.5797 28.2187 52.6016 28.2891 52.6453 28.3484C52.6891 28.4047 52.7594 28.4328 52.8563 28.4328C52.9 28.4328 52.9453 28.4297 52.9922 28.4234C53.0391 28.4141 53.0875 28.4047 53.1375 28.3953V28.9906C53.0656 29.0094 52.9938 29.0266 52.9219 29.0422C52.8531 29.0578 52.7703 29.0656 52.6734 29.0656C52.5234 29.0656 52.3938 29.0531 52.2844 29.0281C52.1781 29.0031 52.0875 28.9625 52.0125 28.9062C51.9406 28.8469 51.8844 28.7719 51.8438 28.6812C51.8031 28.5875 51.7766 28.4734 51.7641 28.3391C51.6578 28.4547 51.5453 28.5625 51.4266 28.6625C51.3078 28.7594 51.175 28.8453 51.0281 28.9203C50.8813 28.9922 50.7172 29.0484 50.5359 29.0891C50.3547 29.1328 50.15 29.1547 49.9219 29.1547C49.7281 29.1547 49.5391 29.1234 49.3547 29.0609C49.1734 28.9984 49.0094 28.9062 48.8625 28.7844C48.7188 28.6625 48.6031 28.5125 48.5156 28.3344C48.4281 28.1531 48.3844 27.9437 48.3844 27.7062C48.3844 27.4469 48.4281 27.2234 48.5156 27.0359C48.6031 26.8453 48.7172 26.6875 48.8578 26.5625C48.9984 26.4344 49.1594 26.3359 49.3406 26.2672C49.5219 26.1984 49.7063 26.1531 49.8938 26.1312L51.3047 25.9578C51.4391 25.9422 51.5438 25.8906 51.6188 25.8031C51.6969 25.7125 51.7359 25.5687 51.7359 25.3719C51.7359 25.0687 51.6359 24.8516 51.4359 24.7203C51.2391 24.5859 50.9547 24.5187 50.5828 24.5187C50.2016 24.5187 49.9172 24.6 49.7297 24.7625C49.5422 24.9219 49.4359 25.1625 49.4109 25.4844H48.6047ZM51.7172 26.4453C51.6484 26.4953 51.5625 26.5375 51.4594 26.5719C51.3594 26.6031 51.2484 26.6297 51.1266 26.6516C51.0047 26.6734 50.875 26.6937 50.7375 26.7125C50.6 26.7281 50.4625 26.7453 50.325 26.7641C50.1688 26.7859 50.025 26.8172 49.8938 26.8578C49.7625 26.8984 49.6484 26.9516 49.5516 27.0172C49.4547 27.0828 49.3797 27.1625 49.3266 27.2562C49.2734 27.3469 49.2469 27.4547 49.2469 27.5797C49.2469 27.7234 49.2688 27.85 49.3125 27.9594C49.3594 28.0687 49.4219 28.1609 49.5 28.2359C49.5813 28.3109 49.6781 28.3672 49.7906 28.4047C49.9031 28.4422 50.0266 28.4609 50.1609 28.4609C50.2453 28.4609 50.3422 28.4516 50.4516 28.4328C50.5609 28.4109 50.6734 28.3797 50.7891 28.3391C50.9047 28.2984 51.0172 28.2469 51.1266 28.1844C51.2391 28.1187 51.3391 28.0406 51.4266 27.95C51.5141 27.8594 51.5844 27.7562 51.6375 27.6406C51.6906 27.525 51.7172 27.3953 51.7172 27.2516V26.4453ZM57.9047 26.1687H59.6344C59.6 25.6625 59.4703 25.2703 59.2453 24.9922C59.0203 24.7141 58.7047 24.575 58.2984 24.575C58.1109 24.575 57.9469 24.6031 57.8063 24.6594C57.6688 24.7156 57.5516 24.7891 57.4547 24.8797C57.3609 24.9703 57.2844 25.075 57.225 25.1937C57.1688 25.3125 57.1266 25.4328 57.0984 25.5547H56.2734C56.3141 25.2547 56.4016 24.9969 56.5359 24.7812C56.6703 24.5625 56.8313 24.3828 57.0188 24.2422C57.2094 24.0984 57.4172 23.9937 57.6422 23.9281C57.8672 23.8594 58.0922 23.825 58.3172 23.825C58.6766 23.825 58.9953 23.8906 59.2734 24.0219C59.5516 24.15 59.7844 24.3312 59.9719 24.5656C60.1625 24.8 60.3063 25.0797 60.4031 25.4047C60.5031 25.7297 60.5531 26.0859 60.5531 26.4734C60.5531 26.8703 60.5031 27.2328 60.4031 27.5609C60.3063 27.8891 60.1625 28.1719 59.9719 28.4094C59.7844 28.6437 59.5516 28.8266 59.2734 28.9578C58.9953 29.0891 58.6766 29.1547 58.3172 29.1547C58.0547 29.1547 57.8078 29.1188 57.5766 29.0469C57.3484 28.975 57.1438 28.8656 56.9625 28.7187C56.7844 28.5719 56.6313 28.3859 56.5031 28.1609C56.375 27.9328 56.2797 27.6656 56.2172 27.3594H57.0984C57.1141 27.5125 57.1547 27.6531 57.2203 27.7812C57.2859 27.9094 57.3703 28.0203 57.4734 28.1141C57.5797 28.2047 57.7016 28.2766 57.8391 28.3297C57.9797 28.3797 58.1297 28.4047 58.2891 28.4047C58.5172 28.4047 58.7156 28.3578 58.8844 28.2641C59.0531 28.1672 59.1922 28.0437 59.3016 27.8937C59.4109 27.7437 59.4922 27.5781 59.5453 27.3969C59.6016 27.2125 59.6313 27.0328 59.6344 26.8578H57.9047V26.1687ZM61.5234 23.9797H62.3859V26.4078L64.9219 23.9797H66.0516L63.6938 26.1969L66.0891 29H64.9781L63.0188 26.7219L62.3859 27.2516V29H61.5234V23.9797ZM70.7297 27.2328C70.7172 27.3547 70.6922 27.4875 70.6547 27.6312C70.6203 27.775 70.5688 27.9187 70.5 28.0625C70.4313 28.2031 70.3422 28.3391 70.2328 28.4703C70.1266 28.6016 69.9953 28.7187 69.8391 28.8219C69.6859 28.9219 69.5047 29.0016 69.2953 29.0609C69.0859 29.1234 68.8469 29.1547 68.5781 29.1547C68.4313 29.1547 68.2766 29.1359 68.1141 29.0984C67.9516 29.0641 67.7922 29.0047 67.6359 28.9203C67.4828 28.8359 67.3359 28.7281 67.1953 28.5969C67.0578 28.4625 66.9359 28.2969 66.8297 28.1C66.7266 27.9031 66.6438 27.675 66.5813 27.4156C66.5188 27.1531 66.4875 26.8531 66.4875 26.5156C66.4875 26.1 66.5469 25.7266 66.6656 25.3953C66.7844 25.0609 66.9422 24.7781 67.1391 24.5469C67.3391 24.3156 67.5703 24.1375 67.8328 24.0125C68.0984 23.8875 68.3766 23.825 68.6672 23.825C68.9297 23.825 69.1609 23.8531 69.3609 23.9094C69.5641 23.9656 69.7406 24.0406 69.8906 24.1344C70.0406 24.2281 70.1672 24.3375 70.2703 24.4625C70.3734 24.5844 70.4563 24.7141 70.5188 24.8516C70.5844 24.9859 70.6328 25.1234 70.6641 25.2641C70.6984 25.4047 70.7203 25.5391 70.7297 25.6672H69.9234C69.8797 25.3266 69.7609 25.0594 69.5672 24.8656C69.3766 24.6719 69.1078 24.575 68.7609 24.575C68.5234 24.575 68.3156 24.6234 68.1375 24.7203C67.9625 24.8172 67.8156 24.9531 67.6969 25.1281C67.5813 25.3 67.4938 25.5094 67.4344 25.7562C67.3781 26 67.35 26.2687 67.35 26.5625C67.35 26.8937 67.3813 27.1797 67.4438 27.4203C67.5063 27.6578 67.5953 27.8547 67.7109 28.0109C67.8266 28.1641 67.9672 28.2781 68.1328 28.3531C68.3016 28.425 68.4922 28.4609 68.7047 28.4609C68.8547 28.4609 68.9969 28.4344 69.1313 28.3812C69.2656 28.325 69.3859 28.2453 69.4922 28.1422C69.5984 28.0359 69.6891 27.9062 69.7641 27.7531C69.8391 27.6 69.8922 27.4266 69.9234 27.2328H70.7297ZM74.7891 24.7297H72.4453V29H71.5828V23.9797H75.6563V29H74.7891V24.7297ZM76.8797 23.9797H77.7422V24.6687H77.7609C77.8172 24.5531 77.8875 24.4437 77.9719 24.3406C78.0594 24.2375 78.1625 24.1484 78.2813 24.0734C78.4031 23.9953 78.5422 23.9344 78.6984 23.8906C78.8578 23.8469 79.0391 23.825 79.2422 23.825C79.5109 23.825 79.7688 23.8766 80.0156 23.9797C80.2625 24.0828 80.4813 24.2375 80.6719 24.4437C80.8625 24.65 81.0141 24.9094 81.1266 25.2219C81.2391 25.5312 81.2953 25.8922 81.2953 26.3047C81.2953 26.8203 81.2422 27.2594 81.1359 27.6219C81.0328 27.9812 80.8844 28.275 80.6906 28.5031C80.5 28.7312 80.2688 28.8969 79.9969 29C79.725 29.1031 79.4219 29.1547 79.0875 29.1547C78.9219 29.1547 78.7672 29.1328 78.6234 29.0891C78.4797 29.0453 78.35 28.9891 78.2344 28.9203C78.1219 28.8484 78.025 28.7703 77.9438 28.6859C77.8625 28.5984 77.8016 28.5141 77.7609 28.4328H77.7422V30.9781H76.8797V23.9797ZM77.7234 26.5156C77.7234 26.7875 77.75 27.0391 77.8031 27.2703C77.8563 27.4984 77.9375 27.6969 78.0469 27.8656C78.1594 28.0344 78.2984 28.1672 78.4641 28.2641C78.6328 28.3578 78.8313 28.4047 79.0594 28.4047C79.2969 28.4047 79.5016 28.3578 79.6734 28.2641C79.8484 28.1672 79.9922 28.0344 80.1047 27.8656C80.2172 27.6969 80.3 27.4984 80.3531 27.2703C80.4063 27.0391 80.4328 26.7875 80.4328 26.5156C80.4328 26.2312 80.4063 25.9703 80.3531 25.7328C80.3 25.4953 80.2172 25.2906 80.1047 25.1187C79.9922 24.9469 79.8484 24.8141 79.6734 24.7203C79.5016 24.6234 79.2969 24.575 79.0594 24.575C78.8313 24.575 78.6328 24.6234 78.4641 24.7203C78.2984 24.8141 78.1594 24.9469 78.0469 25.1187C77.9375 25.2906 77.8563 25.4953 77.8031 25.7328C77.75 25.9703 77.7234 26.2312 77.7234 26.5156ZM86.5453 27.3969C86.5109 27.6156 86.4359 27.8297 86.3203 28.0391C86.2047 28.2484 86.0531 28.4359 85.8656 28.6016C85.6781 28.7672 85.4563 28.9 85.2 29C84.9469 29.1031 84.6656 29.1547 84.3563 29.1547C84.0188 29.1547 83.7063 29.1 83.4188 28.9906C83.1344 28.8781 82.8875 28.7109 82.6781 28.4891C82.4719 28.2641 82.3094 27.9828 82.1906 27.6453C82.0719 27.3078 82.0125 26.9109 82.0125 26.4547C82.0125 26.1484 82.0453 25.8719 82.1109 25.625C82.1797 25.375 82.2703 25.1531 82.3828 24.9594C82.4984 24.7625 82.6313 24.5937 82.7813 24.4531C82.9313 24.3094 83.0891 24.1922 83.2547 24.1016C83.4234 24.0078 83.5953 23.9391 83.7703 23.8953C83.9453 23.8484 84.1141 23.825 84.2766 23.825C84.6203 23.825 84.9344 23.8766 85.2188 23.9797C85.5031 24.0828 85.7469 24.2406 85.95 24.4531C86.1563 24.6625 86.3156 24.9266 86.4281 25.2453C86.5438 25.5609 86.6016 25.9328 86.6016 26.3609V26.7922H82.9313C82.9344 27.0359 82.9688 27.2578 83.0344 27.4578C83.1 27.6547 83.1938 27.8234 83.3156 27.9641C83.4375 28.1047 83.5844 28.2141 83.7563 28.2922C83.9313 28.3672 84.1281 28.4047 84.3469 28.4047C84.5688 28.4047 84.7563 28.3734 84.9094 28.3109C85.0625 28.2484 85.1906 28.1687 85.2938 28.0719C85.3969 27.975 85.4797 27.8672 85.5422 27.7484C85.6078 27.6297 85.6625 27.5125 85.7063 27.3969H86.5453ZM85.7344 26.1031C85.7281 25.8594 85.6906 25.6422 85.6219 25.4516C85.5563 25.2609 85.4625 25.1016 85.3406 24.9734C85.2219 24.8422 85.0781 24.7437 84.9094 24.6781C84.7406 24.6094 84.5531 24.575 84.3469 24.575C84.15 24.575 83.9688 24.6141 83.8031 24.6922C83.6375 24.7672 83.4922 24.8734 83.3672 25.0109C83.2422 25.1453 83.1422 25.3062 83.0672 25.4937C82.9922 25.6781 82.9469 25.8812 82.9313 26.1031H85.7344ZM91.5609 27.2328C91.5484 27.3547 91.5234 27.4875 91.4859 27.6312C91.4516 27.775 91.4 27.9187 91.3313 28.0625C91.2625 28.2031 91.1734 28.3391 91.0641 28.4703C90.9578 28.6016 90.8266 28.7187 90.6703 28.8219C90.5172 28.9219 90.3359 29.0016 90.1266 29.0609C89.9172 29.1234 89.6781 29.1547 89.4094 29.1547C89.2625 29.1547 89.1078 29.1359 88.9453 29.0984C88.7828 29.0641 88.6234 29.0047 88.4672 28.9203C88.3141 28.8359 88.1672 28.7281 88.0266 28.5969C87.8891 28.4625 87.7672 28.2969 87.6609 28.1C87.5578 27.9031 87.475 27.675 87.4125 27.4156C87.35 27.1531 87.3188 26.8531 87.3188 26.5156C87.3188 26.1 87.3781 25.7266 87.4969 25.3953C87.6156 25.0609 87.7734 24.7781 87.9703 24.5469C88.1703 24.3156 88.4016 24.1375 88.6641 24.0125C88.9297 23.8875 89.2078 23.825 89.4984 23.825C89.7609 23.825 89.9922 23.8531 90.1922 23.9094C90.3953 23.9656 90.5719 24.0406 90.7219 24.1344C90.8719 24.2281 90.9984 24.3375 91.1016 24.4625C91.2047 24.5844 91.2875 24.7141 91.35 24.8516C91.4156 24.9859 91.4641 25.1234 91.4953 25.2641C91.5297 25.4047 91.5516 25.5391 91.5609 25.6672H90.7547C90.7109 25.3266 90.5922 25.0594 90.3984 24.8656C90.2078 24.6719 89.9391 24.575 89.5922 24.575C89.3547 24.575 89.1469 24.6234 88.9688 24.7203C88.7938 24.8172 88.6469 24.9531 88.5281 25.1281C88.4125 25.3 88.325 25.5094 88.2656 25.7562C88.2094 26 88.1813 26.2687 88.1813 26.5625C88.1813 26.8937 88.2125 27.1797 88.275 27.4203C88.3375 27.6578 88.4266 27.8547 88.5422 28.0109C88.6578 28.1641 88.7984 28.2781 88.9641 28.3531C89.1328 28.425 89.3234 28.4609 89.5359 28.4609C89.6859 28.4609 89.8281 28.4344 89.9625 28.3812C90.0969 28.325 90.2172 28.2453 90.3234 28.1422C90.4297 28.0359 90.5203 27.9062 90.5953 27.7531C90.6703 27.6 90.7234 27.4266 90.7547 27.2328H91.5609ZM96.3609 27.2328C96.3484 27.3547 96.3234 27.4875 96.2859 27.6312C96.2516 27.775 96.2 27.9187 96.1313 28.0625C96.0625 28.2031 95.9734 28.3391 95.8641 28.4703C95.7578 28.6016 95.6266 28.7187 95.4703 28.8219C95.3172 28.9219 95.1359 29.0016 94.9266 29.0609C94.7172 29.1234 94.4781 29.1547 94.2094 29.1547C94.0625 29.1547 93.9078 29.1359 93.7453 29.0984C93.5828 29.0641 93.4234 29.0047 93.2672 28.9203C93.1141 28.8359 92.9672 28.7281 92.8266 28.5969C92.6891 28.4625 92.5672 28.2969 92.4609 28.1C92.3578 27.9031 92.275 27.675 92.2125 27.4156C92.15 27.1531 92.1188 26.8531 92.1188 26.5156C92.1188 26.1 92.1781 25.7266 92.2969 25.3953C92.4156 25.0609 92.5734 24.7781 92.7703 24.5469C92.9703 24.3156 93.2016 24.1375 93.4641 24.0125C93.7297 23.8875 94.0078 23.825 94.2984 23.825C94.5609 23.825 94.7922 23.8531 94.9922 23.9094C95.1953 23.9656 95.3719 24.0406 95.5219 24.1344C95.6719 24.2281 95.7984 24.3375 95.9016 24.4625C96.0047 24.5844 96.0875 24.7141 96.15 24.8516C96.2156 24.9859 96.2641 25.1234 96.2953 25.2641C96.3297 25.4047 96.3516 25.5391 96.3609 25.6672H95.5547C95.5109 25.3266 95.3922 25.0594 95.1984 24.8656C95.0078 24.6719 94.7391 24.575 94.3922 24.575C94.1547 24.575 93.9469 24.6234 93.7688 24.7203C93.5938 24.8172 93.4469 24.9531 93.3281 25.1281C93.2125 25.3 93.125 25.5094 93.0656 25.7562C93.0094 26 92.9813 26.2687 92.9813 26.5625C92.9813 26.8937 93.0125 27.1797 93.075 27.4203C93.1375 27.6578 93.2266 27.8547 93.3422 28.0109C93.4578 28.1641 93.5984 28.2781 93.7641 28.3531C93.9328 28.425 94.1234 28.4609 94.3359 28.4609C94.4859 28.4609 94.6281 28.4344 94.7625 28.3812C94.8969 28.325 95.0172 28.2453 95.1234 28.1422C95.2297 28.0359 95.3203 27.9062 95.3953 27.7531C95.4703 27.6 95.5234 27.4266 95.5547 27.2328H96.3609ZM103.833 27.2328C103.82 27.3547 103.795 27.4875 103.758 27.6312C103.723 27.775 103.672 27.9187 103.603 28.0625C103.534 28.2031 103.445 28.3391 103.336 28.4703C103.23 28.6016 103.098 28.7187 102.942 28.8219C102.789 28.9219 102.608 29.0016 102.398 29.0609C102.189 29.1234 101.95 29.1547 101.681 29.1547C101.534 29.1547 101.38 29.1359 101.217 29.0984C101.055 29.0641 100.895 29.0047 100.739 28.9203C100.586 28.8359 100.439 28.7281 100.298 28.5969C100.161 28.4625 100.039 28.2969 99.9328 28.1C99.8297 27.9031 99.7469 27.675 99.6844 27.4156C99.6219 27.1531 99.5906 26.8531 99.5906 26.5156C99.5906 26.1 99.65 25.7266 99.7688 25.3953C99.8875 25.0609 100.045 24.7781 100.242 24.5469C100.442 24.3156 100.673 24.1375 100.936 24.0125C101.202 23.8875 101.48 23.825 101.77 23.825C102.033 23.825 102.264 23.8531 102.464 23.9094C102.667 23.9656 102.844 24.0406 102.994 24.1344C103.144 24.2281 103.27 24.3375 103.373 24.4625C103.477 24.5844 103.559 24.7141 103.622 24.8516C103.688 24.9859 103.736 25.1234 103.767 25.2641C103.802 25.4047 103.823 25.5391 103.833 25.6672H103.027C102.983 25.3266 102.864 25.0594 102.67 24.8656C102.48 24.6719 102.211 24.575 101.864 24.575C101.627 24.575 101.419 24.6234 101.241 24.7203C101.066 24.8172 100.919 24.9531 100.8 25.1281C100.684 25.3 100.597 25.5094 100.538 25.7562C100.481 26 100.453 26.2687 100.453 26.5625C100.453 26.8937 100.484 27.1797 100.547 27.4203C100.609 27.6578 100.698 27.8547 100.814 28.0109C100.93 28.1641 101.07 28.2781 101.236 28.3531C101.405 28.425 101.595 28.4609 101.808 28.4609C101.958 28.4609 102.1 28.4344 102.234 28.3812C102.369 28.325 102.489 28.2453 102.595 28.1422C102.702 28.0359 102.792 27.9062 102.867 27.7531C102.942 27.6 102.995 27.4266 103.027 27.2328H103.833ZM104.677 25.4844C104.686 25.1781 104.744 24.9203 104.85 24.7109C104.956 24.4984 105.1 24.3266 105.281 24.1953C105.462 24.0641 105.677 23.9703 105.923 23.9141C106.173 23.8547 106.445 23.825 106.739 23.825C106.983 23.825 107.219 23.85 107.447 23.9C107.678 23.95 107.883 24.0312 108.061 24.1437C108.239 24.2531 108.381 24.3969 108.487 24.575C108.597 24.75 108.652 24.9641 108.652 25.2172V28.1375C108.652 28.2187 108.673 28.2891 108.717 28.3484C108.761 28.4047 108.831 28.4328 108.928 28.4328C108.972 28.4328 109.017 28.4297 109.064 28.4234C109.111 28.4141 109.159 28.4047 109.209 28.3953V28.9906C109.137 29.0094 109.066 29.0266 108.994 29.0422C108.925 29.0578 108.842 29.0656 108.745 29.0656C108.595 29.0656 108.466 29.0531 108.356 29.0281C108.25 29.0031 108.159 28.9625 108.084 28.9062C108.012 28.8469 107.956 28.7719 107.916 28.6812C107.875 28.5875 107.848 28.4734 107.836 28.3391C107.73 28.4547 107.617 28.5625 107.498 28.6625C107.38 28.7594 107.247 28.8453 107.1 28.9203C106.953 28.9922 106.789 29.0484 106.608 29.0891C106.427 29.1328 106.222 29.1547 105.994 29.1547C105.8 29.1547 105.611 29.1234 105.427 29.0609C105.245 28.9984 105.081 28.9062 104.934 28.7844C104.791 28.6625 104.675 28.5125 104.587 28.3344C104.5 28.1531 104.456 27.9437 104.456 27.7062C104.456 27.4469 104.5 27.2234 104.587 27.0359C104.675 26.8453 104.789 26.6875 104.93 26.5625C105.07 26.4344 105.231 26.3359 105.412 26.2672C105.594 26.1984 105.778 26.1531 105.966 26.1312L107.377 25.9578C107.511 25.9422 107.616 25.8906 107.691 25.8031C107.769 25.7125 107.808 25.5687 107.808 25.3719C107.808 25.0687 107.708 24.8516 107.508 24.7203C107.311 24.5859 107.027 24.5187 106.655 24.5187C106.273 24.5187 105.989 24.6 105.802 24.7625C105.614 24.9219 105.508 25.1625 105.483 25.4844H104.677ZM107.789 26.4453C107.72 26.4953 107.634 26.5375 107.531 26.5719C107.431 26.6031 107.32 26.6297 107.198 26.6516C107.077 26.6734 106.947 26.6937 106.809 26.7125C106.672 26.7281 106.534 26.7453 106.397 26.7641C106.241 26.7859 106.097 26.8172 105.966 26.8578C105.834 26.8984 105.72 26.9516 105.623 27.0172C105.527 27.0828 105.452 27.1625 105.398 27.2562C105.345 27.3469 105.319 27.4547 105.319 27.5797C105.319 27.7234 105.341 27.85 105.384 27.9594C105.431 28.0687 105.494 28.1609 105.572 28.2359C105.653 28.3109 105.75 28.3672 105.862 28.4047C105.975 28.4422 106.098 28.4609 106.233 28.4609C106.317 28.4609 106.414 28.4516 106.523 28.4328C106.633 28.4109 106.745 28.3797 106.861 28.3391C106.977 28.2984 107.089 28.2469 107.198 28.1844C107.311 28.1187 107.411 28.0406 107.498 27.95C107.586 27.8594 107.656 27.7562 107.709 27.6406C107.762 27.525 107.789 27.3953 107.789 27.2516V26.4453ZM111.384 22.0297C111.425 22.2297 111.509 22.3891 111.637 22.5078C111.766 22.6234 111.955 22.6812 112.205 22.6812C112.458 22.6812 112.648 22.625 112.777 22.5125C112.905 22.3969 112.987 22.2359 113.025 22.0297H113.827C113.823 22.2172 113.783 22.3875 113.705 22.5406C113.627 22.6906 113.516 22.8187 113.372 22.925C113.231 23.0312 113.061 23.1141 112.861 23.1734C112.664 23.2297 112.445 23.2578 112.205 23.2578C111.964 23.2578 111.745 23.2297 111.548 23.1734C111.352 23.1172 111.183 23.0359 111.042 22.9297C110.902 22.8234 110.791 22.6953 110.709 22.5453C110.631 22.3922 110.591 22.2203 110.587 22.0297H111.384ZM110.03 23.9797H110.892V27.8281H110.911L113.377 23.9797H114.366V29H113.498V25.1516H113.48L111.019 29H110.03V23.9797ZM116.972 24.7297H115.242V23.9797H119.564V24.7297H117.834V29H116.972V24.7297ZM123.942 26.4828C123.942 26.2047 123.911 25.95 123.848 25.7187C123.786 25.4844 123.692 25.2828 123.567 25.1141C123.442 24.9453 123.288 24.8141 123.103 24.7203C122.922 24.6234 122.711 24.575 122.47 24.575C122.23 24.575 122.019 24.6234 121.838 24.7203C121.656 24.8141 121.503 24.9453 121.378 25.1141C121.253 25.2828 121.159 25.4844 121.097 25.7187C121.034 25.95 121.003 26.2047 121.003 26.4828C121.003 26.7641 121.034 27.0234 121.097 27.2609C121.159 27.4953 121.253 27.6969 121.378 27.8656C121.503 28.0344 121.656 28.1672 121.838 28.2641C122.019 28.3578 122.23 28.4047 122.47 28.4047C122.711 28.4047 122.922 28.3578 123.103 28.2641C123.288 28.1672 123.442 28.0344 123.567 27.8656C123.692 27.6969 123.786 27.4953 123.848 27.2609C123.911 27.0234 123.942 26.7641 123.942 26.4828ZM124.805 26.4828C124.805 26.8953 124.752 27.2672 124.645 27.5984C124.539 27.9266 124.386 28.2062 124.186 28.4375C123.986 28.6687 123.741 28.8469 123.45 28.9719C123.163 29.0938 122.836 29.1547 122.47 29.1547C122.105 29.1547 121.778 29.0938 121.491 28.9719C121.203 28.8469 120.959 28.6687 120.759 28.4375C120.559 28.2062 120.406 27.9266 120.3 27.5984C120.194 27.2672 120.141 26.8953 120.141 26.4828C120.141 26.0766 120.194 25.7094 120.3 25.3812C120.406 25.0531 120.559 24.7734 120.759 24.5422C120.959 24.3109 121.203 24.1344 121.491 24.0125C121.778 23.8875 122.105 23.825 122.47 23.825C122.836 23.825 123.163 23.8875 123.45 24.0125C123.741 24.1344 123.986 24.3109 124.186 24.5422C124.386 24.7734 124.539 25.0531 124.645 25.3812C124.752 25.7094 124.805 26.0766 124.805 26.4828ZM125.78 23.9797H127.917C128.53 23.9797 128.988 24.0937 129.291 24.3219C129.597 24.55 129.75 24.8812 129.75 25.3156C129.75 25.5469 129.694 25.7422 129.581 25.9016C129.469 26.0609 129.32 26.2016 129.136 26.3234C129.402 26.4234 129.613 26.5672 129.769 26.7547C129.925 26.9422 130.003 27.1844 130.003 27.4812C130.003 27.7156 129.964 27.9266 129.886 28.1141C129.808 28.3016 129.689 28.4609 129.53 28.5922C129.37 28.7234 129.167 28.825 128.92 28.8969C128.677 28.9656 128.388 29 128.053 29H125.78V23.9797ZM126.642 28.3109H127.955C128.183 28.3109 128.372 28.2937 128.522 28.2594C128.675 28.2219 128.797 28.1687 128.888 28.1C128.978 28.0312 129.042 27.9484 129.08 27.8516C129.117 27.7547 129.136 27.6453 129.136 27.5234C129.136 27.4016 129.117 27.2922 129.08 27.1953C129.042 27.0953 128.978 27.0125 128.888 26.9469C128.797 26.8781 128.675 26.8266 128.522 26.7922C128.372 26.7547 128.183 26.7359 127.955 26.7359H126.642V28.3109ZM126.642 26.1031H127.945C128.236 26.1031 128.466 26.0453 128.634 25.9297C128.803 25.8141 128.888 25.6344 128.888 25.3906C128.888 25.2531 128.864 25.1391 128.817 25.0484C128.77 24.9547 128.708 24.8797 128.63 24.8234C128.552 24.7672 128.463 24.7281 128.363 24.7062C128.266 24.6812 128.166 24.6687 128.063 24.6687H126.642V26.1031Z" fill="#FFFDF6" fill-opacity="0.6"/>
</svg>
