<svg width="160" height="31" fill="none" xmlns="http://www.w3.org/2000/svg"><path d="M9.142 9.95L3.138.76H0V18h4.218l-.042-8.704 3.803 5.979h2.327l3.782-5.916V18h4.197V.76h-3.138L9.142 9.95zm18.14-4.9c-3.844 0-6.65 2.767-6.65 6.464 0 3.76 2.827 6.486 6.65 6.486 3.802 0 6.628-2.725 6.628-6.486 0-3.718-2.826-6.465-6.628-6.465zm0 9.464c-1.704 0-2.805-1.268-2.805-3 0-1.669 1.122-3.021 2.805-3.021 1.662 0 2.784 1.352 2.784 3.021 0 1.732-1.122 3-2.784 3zM43.26 5.366c-1.288 0-2.348.402-3.324 1.141v-.803h-4.073V18h4.073v-7.732c.706-.782 1.475-1.162 2.202-1.162 1.35 0 2.224.781 2.224 2.535V18h4.03v-7.035c0-3.486-2.098-5.599-5.132-5.599zm13.714-.316c-3.844 0-6.65 2.767-6.65 6.464 0 3.76 2.827 6.486 6.65 6.486 3.802 0 6.628-2.725 6.628-6.486 0-3.718-2.826-6.465-6.628-6.465zm0 9.464c-1.704 0-2.805-1.268-2.805-3 0-1.669 1.122-3.021 2.805-3.021 1.662 0 2.784 1.352 2.784 3.021 0 1.732-1.122 3-2.784 3zM80.62 5.366c-1.788 0-3.013.486-4.302 1.627-.893-1.035-2.202-1.627-3.719-1.627-1.33 0-2.16.36-2.971 1.035v-.697h-4.073V18h4.073v-7.88c.582-.74 1.205-1.014 1.787-1.014 1.309 0 2.16.781 2.16 2.535V18h4.032v-7.035c0-.296-.021-.613-.042-.887.603-.74 1.226-.993 1.85-.993 1.33 0 2.16.781 2.16 2.535v6.359h4.031v-7.014c.021-3.486-2.078-5.599-4.987-5.599zm13.61-.316c-3.845 0-6.65 2.767-6.65 6.464 0 3.76 2.826 6.486 6.65 6.486 3.801 0 6.627-2.725 6.627-6.486 0-3.718-2.826-6.465-6.628-6.465zm0 9.464c-1.705 0-2.806-1.268-2.806-3 0-1.669 1.122-3.021 2.805-3.021 1.662 0 2.784 1.352 2.784 3.021 0 1.732-1.122 3-2.784 3zM107.049 0h-4.072v18h4.072V0zm8.769 5.05c-3.844 0-6.649 2.767-6.649 6.464 0 3.76 2.825 6.486 6.649 6.486 3.802 0 6.628-2.725 6.628-6.486 0-3.718-2.826-6.465-6.628-6.465zm0 9.464c-1.704 0-2.805-1.268-2.805-3 0-1.669 1.122-3.021 2.805-3.021 1.662 0 2.784 1.352 2.784 3.021 0 1.732-1.122 3-2.784 3zm14.918-5.979c1.226 0 2.161.782 2.369 1.902h3.803c-.291-3.17-2.868-5.367-6.213-5.367-3.782 0-6.608 2.747-6.608 6.465 0 3.76 2.826 6.465 6.608 6.465 3.345 0 5.901-2.176 6.213-5.345h-3.803c-.208 1.12-1.143 1.88-2.369 1.88-1.745 0-2.763-1.31-2.763-3s1.018-3 2.763-3zm14.483-3.485c-3.844 0-6.649 2.767-6.649 6.464 0 3.76 2.826 6.486 6.649 6.486 3.802 0 6.628-2.725 6.628-6.486 0-3.718-2.826-6.465-6.628-6.465zm0 9.464c-1.704 0-2.805-1.268-2.805-3 0-1.669 1.122-3.021 2.805-3.021 1.662 0 2.784 1.352 2.784 3.021 0 1.732-1.122 3-2.784 3zM157.79 6.19a.725.725 0 00-.25-.148c.25-.02.457-.105.603-.274a.865.865 0 00.228-.57.751.751 0 00-.145-.444.767.767 0 00-.374-.296c-.145-.064-.395-.085-.748-.085h-.997v2.958h.478V6.063h.27a.61.61 0 01.374.106c.124.085.291.317.498.697l.25.465h.581l-.353-.57a2.848 2.848 0 00-.415-.57zm-.624-.486h-.561v-.908h.541c.228 0 .394.02.477.042.084.021.146.085.208.148.063.063.063.148.063.232a.424.424 0 01-.146.338c-.104.085-.291.148-.582.148z" fill="#FFFDF7"/><path d="M159.66 4.458a2.502 2.502 0 00-1.018-1.014c-.437-.233-.873-.36-1.33-.36-.457 0-.894.127-1.33.36-.436.232-.769.57-1.018 1.014-.25.443-.374.908-.374 1.373 0 .465.124.93.353 1.373.249.444.582.782.997 1.014.437.233.873.36 1.351.36s.914-.127 1.351-.36c.436-.232.768-.591.997-1.014a2.94 2.94 0 00.353-1.373c.042-.465-.083-.93-.332-1.373zm-.374 2.535c-.208.36-.478.655-.831.845a2.132 2.132 0 01-1.122.296 2.35 2.35 0 01-1.123-.296c-.353-.211-.644-.486-.831-.845a2.23 2.23 0 01-.291-1.14c0-.402.104-.783.312-1.163.208-.359.478-.655.852-.845.353-.19.727-.296 1.122-.296.374 0 .748.106 1.101.296.354.19.644.486.852.845.208.36.312.76.312 1.162-.062.38-.146.76-.353 1.141zM56.974 3.76c.83 0 1.392-.633 1.392-1.5 0-.845-.561-1.5-1.392-1.5-.852 0-1.413.677-1.413 1.5 0 .867.56 1.5 1.413 1.5z" fill="#FFFDF7"/><path d="M3.516 25.334c.487 0 .839-.103 1.054-.309.216-.206.324-.506.324-.9s-.108-.694-.324-.9c-.215-.206-.567-.31-1.054-.31H1.63v2.42h1.885zM.712 22.11H3.61c.378 0 .705.049.98.146.278.097.508.234.69.412.18.175.315.386.402.633.09.247.136.522.136.825 0 .303-.045.578-.136.825-.087.247-.222.46-.403.637-.181.175-.41.311-.689.408a2.954 2.954 0 01-.98.146H1.631V29H.713v-6.89zm6.315 3.375c.009-.306.067-.564.173-.773.106-.213.25-.384.431-.516a1.74 1.74 0 01.642-.28c.25-.06.522-.09.816-.09.244 0 .48.025.708.075.231.05.436.131.614.244.178.11.32.253.427.431.109.175.164.39.164.642v2.92c0 .082.021.152.065.211.044.057.114.085.211.085.044 0 .09-.003.136-.01l.145-.028v.596a5.304 5.304 0 01-.215.051 1.764 1.764 0 01-.637-.014.722.722 0 01-.273-.122.61.61 0 01-.168-.225 1.126 1.126 0 01-.08-.342 3.655 3.655 0 01-.338.324 2.235 2.235 0 01-.398.257c-.147.072-.31.128-.492.17a2.627 2.627 0 01-.614.065c-.194 0-.383-.032-.567-.094a1.563 1.563 0 01-.493-.277 1.38 1.38 0 01-.346-.45 1.429 1.429 0 01-.132-.628c0-.26.044-.483.131-.67a1.41 1.41 0 01.343-.474c.14-.128.301-.226.482-.295.182-.069.366-.114.554-.136l1.41-.173a.466.466 0 00.315-.155c.078-.09.117-.234.117-.431 0-.303-.1-.52-.3-.652-.197-.134-.481-.201-.853-.201-.382 0-.666.081-.853.244-.188.159-.294.4-.32.721h-.805zm3.112.961a.946.946 0 01-.258.127c-.1.031-.21.058-.333.08a9.602 9.602 0 01-.389.06c-.137.016-.275.033-.412.052-.156.022-.3.053-.431.094a1.25 1.25 0 00-.343.16.712.712 0 00-.225.238.629.629 0 00-.08.324c0 .143.023.27.066.38.047.109.11.2.188.276a.791.791 0 00.29.169c.113.037.236.056.37.056a1.82 1.82 0 00.629-.122 1.93 1.93 0 00.337-.155c.113-.065.213-.143.3-.234.088-.09.158-.194.211-.31a.921.921 0 00.08-.388v-.807zm3.54-.347h.435c.116 0 .236-.014.361-.042.125-.028.24-.072.342-.131a.806.806 0 00.253-.24.591.591 0 00.103-.35.65.65 0 00-.065-.287.64.64 0 00-.188-.243.863.863 0 00-.31-.17 1.413 1.413 0 00-.744-.023 1.152 1.152 0 00-.352.141 1.008 1.008 0 00-.305.286 1.031 1.031 0 00-.168.478h-.807c.022-.225.068-.422.136-.59a1.568 1.568 0 01.605-.76 2.025 2.025 0 01.825-.31 2.53 2.53 0 011.069.056c.219.057.414.145.586.264.175.115.315.262.422.44.106.178.159.386.159.624a1.072 1.072 0 01-.239.712 1.141 1.141 0 01-.235.225 2.02 2.02 0 01-.257.15v.024c.087.015.184.048.29.098a1.017 1.017 0 01.52.548c.063.138.094.307.094.507 0 .28-.06.525-.182.73a1.61 1.61 0 01-.47.517 2.101 2.101 0 01-.655.3 2.892 2.892 0 01-1.603-.019 2.04 2.04 0 01-.666-.347 1.737 1.737 0 01-.45-.54 1.807 1.807 0 01-.197-.693h.867c.022.184.075.338.16.46a.997.997 0 00.304.29c.119.072.25.124.394.155.147.031.295.047.445.047.397 0 .694-.08.89-.24.2-.159.3-.373.3-.642a.803.803 0 00-.055-.309.506.506 0 00-.178-.23.84.84 0 00-.338-.145 2.168 2.168 0 00-.516-.051c-.04 0-.087.001-.14.004a2.572 2.572 0 00-.305.019l-.136.01v-.723zm3.454-2.118h.862v.689h.02a1.67 1.67 0 01.21-.328c.087-.104.19-.193.31-.268.121-.078.26-.139.417-.182a2.04 2.04 0 01.543-.066c.27 0 .527.052.774.155.247.103.465.258.656.464.19.206.342.465.455.778.112.31.168.67.168 1.083 0 .515-.053.954-.159 1.317a2.34 2.34 0 01-.445.881c-.19.228-.422.394-.694.497a2.548 2.548 0 01-.91.155 1.57 1.57 0 01-.463-.066 1.76 1.76 0 01-.39-.169 1.585 1.585 0 01-.29-.234 1.107 1.107 0 01-.183-.253h-.019v2.545h-.862V23.98zm.844 2.536c0 .272.026.523.08.754.052.228.134.427.243.596.113.168.252.301.417.398.169.094.367.14.596.14.237 0 .442-.046.614-.14.175-.097.318-.23.43-.398a1.8 1.8 0 00.25-.596 3.37 3.37 0 00.079-.754 3.59 3.59 0 00-.08-.783 1.85 1.85 0 00-.248-.614 1.17 1.17 0 00-.431-.399 1.231 1.231 0 00-.614-.145c-.229 0-.427.048-.596.145a1.209 1.209 0 00-.417.399c-.11.172-.19.376-.244.614a3.59 3.59 0 00-.08.783zm4.537-1.032c.01-.306.067-.564.174-.773.106-.213.25-.384.43-.516a1.74 1.74 0 01.643-.28c.25-.06.522-.09.816-.09.243 0 .48.025.707.075.232.05.436.131.614.244.179.11.32.253.427.431.11.175.164.39.164.642v2.92c0 .082.022.152.066.211.043.057.114.085.21.085a.93.93 0 00.137-.01l.145-.028v.596a5.304 5.304 0 01-.216.051 1.764 1.764 0 01-.637-.014.722.722 0 01-.272-.122.61.61 0 01-.169-.225 1.126 1.126 0 01-.08-.342 3.649 3.649 0 01-.337.324 2.232 2.232 0 01-.398.257 2.284 2.284 0 01-.493.17 2.626 2.626 0 01-.614.065c-.194 0-.383-.032-.567-.094a1.563 1.563 0 01-.492-.277 1.378 1.378 0 01-.347-.45 1.429 1.429 0 01-.131-.628c0-.26.043-.483.131-.67a1.41 1.41 0 01.342-.474 1.5 1.5 0 01.483-.295c.181-.069.366-.114.553-.136l1.411-.173a.466.466 0 00.314-.155c.078-.09.117-.234.117-.431 0-.303-.1-.52-.3-.652-.197-.134-.48-.201-.853-.201-.381 0-.665.081-.853.244-.187.159-.294.4-.319.721h-.806zm3.113.961a.946.946 0 01-.258.127 2.76 2.76 0 01-.333.08 9.577 9.577 0 01-.39.06c-.137.016-.274.033-.412.052-.156.022-.3.053-.43.094a1.25 1.25 0 00-.343.16.713.713 0 00-.225.238.629.629 0 00-.08.324c0 .143.022.27.066.38.047.109.11.2.187.276a.79.79 0 00.291.169c.113.037.236.056.37.056a1.797 1.797 0 00.628-.122c.116-.04.229-.092.338-.155.112-.065.212-.143.3-.234.087-.09.158-.194.21-.31a.921.921 0 00.08-.388v-.807zm6.14-4.397a3.896 3.896 0 01-.028.174.873.873 0 01-.06.21 1.158 1.158 0 01-.132.23.924.924 0 01-.216.211c-.05.035-.095.064-.136.09a.655.655 0 01-.154.065 1.533 1.533 0 01-.24.047c-.096.012-.226.02-.388.023l-.357.01a1.618 1.618 0 00-.66.15c-.194.09-.366.219-.516.384-.147.163-.27.36-.366.59-.097.232-.169.49-.216.774a2.17 2.17 0 01.244-.365 1.51 1.51 0 01.361-.324c.144-.097.313-.173.506-.23a2.33 2.33 0 01.675-.089c.291 0 .566.052.825.155.263.103.491.258.685.464.197.206.353.463.468.769.116.306.174.662.174 1.069 0 .128-.01.284-.028.468a3.405 3.405 0 01-.113.572c-.056.2-.137.4-.243.6a1.874 1.874 0 01-.418.53 2.009 2.009 0 01-.632.38c-.247.1-.544.15-.891.15-.144 0-.297-.013-.46-.038a2.068 2.068 0 01-.952-.39 1.946 1.946 0 01-.412-.43 3.145 3.145 0 01-.187-.3 2.582 2.582 0 01-.164-.417 3.762 3.762 0 01-.122-.577 6.348 6.348 0 01-.042-.787c0-.2.01-.427.028-.68a7.95 7.95 0 01.098-.774c.047-.262.11-.515.188-.759.078-.247.178-.462.3-.647.131-.2.269-.362.412-.487.144-.125.297-.224.46-.296.162-.071.337-.123.525-.154.187-.032.39-.052.61-.061l.304-.01c.1-.003.184-.007.253-.014a.75.75 0 00.178-.042.256.256 0 00.113-.084.473.473 0 00.07-.16h.656zm-3.333 4.533a2.875 2.875 0 00.084.736c.035.138.085.275.15.413.066.137.152.26.259.37a1.3 1.3 0 00.403.262c.16.066.35.099.572.099a1.5 1.5 0 00.623-.117c.169-.082.308-.185.417-.31.11-.128.192-.268.249-.421a2.39 2.39 0 00.126-.446c.028-.147.044-.28.047-.398.006-.122.01-.214.01-.277 0-.228-.027-.451-.08-.67a1.68 1.68 0 00-.249-.581 1.272 1.272 0 00-.445-.408 1.338 1.338 0 00-.67-.155c-.26 0-.483.052-.67.155-.188.1-.343.237-.465.412a1.814 1.814 0 00-.272.605 2.91 2.91 0 00-.089.731zm8.283-.098c0-.278-.031-.533-.094-.764a1.77 1.77 0 00-.28-.605 1.322 1.322 0 00-1.097-.54 1.323 1.323 0 00-1.093.54 1.77 1.77 0 00-.281.605 2.925 2.925 0 00-.094.764c0 .281.031.54.094.778.062.234.156.436.281.605.125.168.278.301.46.398.18.094.392.14.632.14s.452-.046.633-.14c.184-.097.34-.23.464-.398a1.77 1.77 0 00.281-.605c.063-.238.094-.497.094-.778zm.863 0c0 .412-.053.784-.16 1.115a2.39 2.39 0 01-.46.84c-.2.23-.444.409-.735.534a2.489 2.489 0 01-.98.183c-.365 0-.692-.061-.98-.183a2.016 2.016 0 01-.73-.535 2.37 2.37 0 01-.46-.839 3.645 3.645 0 01-.16-1.115c0-.406.054-.774.16-1.102.106-.328.26-.608.46-.839.2-.231.443-.408.73-.53a2.44 2.44 0 01.98-.187c.366 0 .693.063.98.188.29.121.536.298.736.53.2.23.353.51.46.838.106.328.159.696.159 1.102zm2.31-1.753h-1.73v-.75h4.323v.75h-1.73V29h-.862v-4.27zm3.465-.75h.862v2.428l2.536-2.428h1.13l-2.358 2.217L47.92 29h-1.11l-1.96-2.278-.633.53V29h-.862v-5.02zm5.25 1.504c.01-.306.067-.564.173-.773.106-.213.25-.384.431-.516a1.74 1.74 0 01.643-.28c.25-.06.521-.09.815-.09.244 0 .48.025.708.075.231.05.436.131.614.244.178.11.32.253.427.431.109.175.164.39.164.642v2.92c0 .082.022.152.065.211.044.057.114.085.211.085.044 0 .09-.003.136-.01l.146-.028v.596a5.264 5.264 0 01-.216.051 1.765 1.765 0 01-.638-.014.722.722 0 01-.271-.122.609.609 0 01-.17-.225 1.123 1.123 0 01-.079-.342 3.674 3.674 0 01-.337.324 2.237 2.237 0 01-.399.257c-.147.072-.31.128-.492.17a2.626 2.626 0 01-.614.065c-.194 0-.383-.032-.567-.094a1.563 1.563 0 01-.492-.277 1.38 1.38 0 01-.347-.45 1.429 1.429 0 01-.132-.628c0-.26.044-.483.132-.67a1.41 1.41 0 01.342-.474 1.5 1.5 0 01.483-.295 2.31 2.31 0 01.553-.136l1.41-.173a.466.466 0 00.315-.155c.078-.09.117-.234.117-.431 0-.303-.1-.52-.3-.652-.197-.134-.481-.201-.853-.201-.381 0-.666.081-.853.244-.188.159-.294.4-.32.721h-.805zm3.112.961a.946.946 0 01-.258.127c-.1.031-.21.058-.332.08a9.61 9.61 0 01-.39.06c-.137.016-.275.033-.412.052-.156.022-.3.053-.431.094a1.28 1.28 0 00-.342.16.711.711 0 00-.225.238.628.628 0 00-.08.324c0 .143.022.27.066.38.046.109.109.2.187.276a.791.791 0 00.29.169c.113.037.237.056.37.056.085 0 .182-.01.292-.028a2.51 2.51 0 00.337-.094c.116-.04.228-.092.338-.155.112-.065.212-.143.3-.234.087-.09.157-.194.21-.31a.921.921 0 00.08-.388v-.807zm6.188-.276h1.73c-.035-.506-.165-.899-.39-1.177s-.54-.417-.947-.417c-.187 0-.351.028-.492.084a1.14 1.14 0 00-.351.22c-.094.091-.17.196-.23.315a1.864 1.864 0 00-.127.36h-.825a1.92 1.92 0 011.369-1.627c.225-.068.45-.102.675-.102.36 0 .678.066.956.197a1.9 1.9 0 01.699.544c.19.234.334.514.431.839.1.325.15.68.15 1.068 0 .397-.05.76-.15 1.088-.097.328-.24.61-.431.848-.188.235-.42.418-.699.549a2.215 2.215 0 01-.956.197 2.48 2.48 0 01-.74-.108 1.848 1.848 0 01-.614-.328 1.988 1.988 0 01-.46-.558 2.753 2.753 0 01-.286-.802h.881a1.18 1.18 0 00.375.755c.107.09.229.163.366.216.14.05.29.075.45.075.228 0 .427-.047.595-.14.17-.098.308-.221.418-.371.109-.15.19-.316.243-.497.057-.184.086-.364.09-.54h-1.73v-.688zm3.618-2.19h.863v2.429l2.536-2.428h1.13l-2.358 2.217L66.089 29h-1.11l-1.96-2.278-.633.53V29h-.863v-5.02zm9.207 3.254a2.665 2.665 0 01-.075.398 2.028 2.028 0 01-.422.84 1.72 1.72 0 01-.394.35c-.153.1-.334.18-.544.24a2.51 2.51 0 01-.717.094 2.1 2.1 0 01-.464-.057 1.776 1.776 0 01-.478-.178 2.214 2.214 0 01-.44-.323 2.04 2.04 0 01-.366-.497 2.975 2.975 0 01-.249-.684 3.903 3.903 0 01-.094-.9c0-.416.06-.79.179-1.12.118-.335.276-.618.473-.85.2-.23.431-.409.694-.534.265-.125.544-.187.834-.187.263 0 .494.028.694.084.203.057.38.132.53.225a1.675 1.675 0 01.628.717 2.465 2.465 0 01.21.816h-.806c-.043-.34-.162-.608-.356-.801-.19-.194-.46-.291-.806-.291a1.28 1.28 0 00-.623.145 1.275 1.275 0 00-.441.408 1.923 1.923 0 00-.263.628 3.585 3.585 0 00-.084.806c0 .332.031.618.094.858.062.238.151.435.267.59.116.154.256.268.422.343.169.072.36.108.572.108.15 0 .292-.027.426-.08.135-.056.255-.136.361-.239.106-.106.197-.236.272-.389.075-.153.128-.326.16-.52h.806zm4.06-2.503h-2.345V29h-.862v-5.02h4.073V29h-.867v-4.27zm2.09-.75h.862v.689h.019c.056-.116.127-.225.21-.328.088-.104.191-.193.31-.268.122-.078.261-.139.417-.182.16-.044.341-.066.544-.066.269 0 .527.052.774.155.246.103.465.258.656.464.19.206.342.465.455.778.112.31.168.67.168 1.083 0 .515-.053.954-.16 1.317a2.31 2.31 0 01-.444.881 1.66 1.66 0 01-.694.497 2.548 2.548 0 01-.91.155c-.165 0-.32-.022-.464-.066a1.762 1.762 0 01-.389-.169 1.585 1.585 0 01-.29-.234 1.11 1.11 0 01-.183-.253h-.019v2.545h-.862V23.98zm.843 2.536c0 .272.027.523.08.754.053.228.135.427.244.596.112.168.251.301.417.398.169.094.367.14.595.14.238 0 .443-.046.614-.14.175-.097.32-.23.432-.398.112-.17.195-.368.248-.596.053-.23.08-.482.08-.754a3.59 3.59 0 00-.08-.783 1.848 1.848 0 00-.248-.614 1.171 1.171 0 00-.432-.399 1.23 1.23 0 00-.614-.145c-.228 0-.426.048-.595.145a1.208 1.208 0 00-.417.399c-.11.172-.19.376-.244.614a3.59 3.59 0 00-.08.783zm8.822.88a1.95 1.95 0 01-.225.643 2.1 2.1 0 01-.454.563c-.188.165-.41.298-.666.398a2.217 2.217 0 01-.844.155 2.62 2.62 0 01-.937-.164 2.037 2.037 0 01-.74-.502 2.42 2.42 0 01-.488-.844 3.591 3.591 0 01-.178-1.19c0-.307.032-.583.098-.83.069-.25.16-.472.272-.666.115-.197.248-.365.398-.506a2.24 2.24 0 01.99-.558c.174-.047.343-.07.506-.07.343 0 .657.052.942.155.284.103.528.26.731.473.206.21.366.474.478.792.116.316.174.688.174 1.116v.431h-3.67c.002.244.037.466.102.666.066.197.16.365.282.506.121.14.268.25.44.328.175.075.372.113.59.113a1.5 1.5 0 00.563-.094 1.24 1.24 0 00.385-.24c.103-.096.186-.204.248-.323.066-.118.12-.236.164-.351h.84zm-.81-1.293a2.075 2.075 0 00-.113-.651 1.318 1.318 0 00-.281-.479 1.12 1.12 0 00-.432-.295 1.48 1.48 0 00-.562-.103 1.32 1.32 0 00-.98.436 1.54 1.54 0 00-.3.483c-.075.184-.12.387-.136.61h2.803zm5.826 1.13a2.665 2.665 0 01-.075.398 2.036 2.036 0 01-.422.84 1.721 1.721 0 01-.394.35c-.153.1-.334.18-.543.24a2.51 2.51 0 01-.718.094 2.1 2.1 0 01-.464-.057 1.774 1.774 0 01-.478-.178 2.214 2.214 0 01-.44-.323 2.05 2.05 0 01-.366-.497 2.975 2.975 0 01-.249-.684 3.904 3.904 0 01-.093-.9c0-.416.06-.79.178-1.12.119-.335.276-.618.473-.85.2-.23.432-.409.694-.534.266-.125.544-.187.834-.187.263 0 .494.028.694.084a2 2 0 01.53.225 1.675 1.675 0 01.628.717c.066.135.114.272.145.413.035.14.057.275.066.403h-.806c-.044-.34-.163-.608-.357-.801-.19-.194-.459-.291-.806-.291-.237 0-.445.048-.623.145a1.276 1.276 0 00-.44.408 1.923 1.923 0 00-.263.628 3.591 3.591 0 00-.085.806c0 .332.032.618.094.858.063.238.152.435.267.59.116.154.256.268.422.343.169.072.36.108.572.108.15 0 .292-.027.427-.08a1.15 1.15 0 00.36-.239 1.44 1.44 0 00.272-.389c.075-.153.128-.326.16-.52h.806zm4.8 0a2.665 2.665 0 01-.075.398 2.036 2.036 0 01-.422.84 1.721 1.721 0 01-.394.35c-.153.1-.334.18-.543.24a2.51 2.51 0 01-.718.094 2.1 2.1 0 01-.464-.057 1.774 1.774 0 01-.478-.178 2.214 2.214 0 01-.44-.323 2.05 2.05 0 01-.366-.497 2.975 2.975 0 01-.248-.684 3.904 3.904 0 01-.094-.9c0-.416.06-.79.178-1.12.119-.335.276-.618.473-.85.2-.23.432-.409.694-.534.266-.125.544-.187.834-.187.263 0 .494.028.694.084a2 2 0 01.53.225 1.675 1.675 0 01.628.717c.066.135.114.272.145.413.035.14.057.275.066.403h-.806c-.044-.34-.163-.608-.357-.801-.19-.194-.459-.291-.806-.291-.237 0-.445.048-.623.145a1.276 1.276 0 00-.44.408 1.923 1.923 0 00-.263.628 3.591 3.591 0 00-.085.806c0 .332.032.618.094.858.063.238.152.435.267.59.116.154.256.268.422.343.169.072.36.108.572.108.15 0 .292-.027.427-.08a1.15 1.15 0 00.36-.239 1.44 1.44 0 00.272-.389c.075-.153.128-.326.16-.52h.806zm7.472 0a2.8 2.8 0 01-.23.83c-.069.14-.158.276-.267.407a1.722 1.722 0 01-.394.352c-.153.1-.334.18-.544.239a2.505 2.505 0 01-.717.094 2.1 2.1 0 01-.464-.057 1.777 1.777 0 01-.478-.178 2.23 2.23 0 01-.441-.323 2.059 2.059 0 01-.365-.497 2.975 2.975 0 01-.249-.684 3.903 3.903 0 01-.093-.9c0-.416.059-.79.178-1.12a2.67 2.67 0 01.473-.85c.2-.23.431-.409.694-.534.266-.125.544-.187.834-.187.263 0 .494.028.694.084.203.057.38.132.53.225a1.664 1.664 0 01.628.717c.066.135.114.272.145.413.035.14.056.275.066.403h-.806c-.044-.34-.163-.608-.357-.801-.19-.194-.459-.291-.806-.291-.237 0-.445.048-.623.145a1.279 1.279 0 00-.441.408 1.906 1.906 0 00-.262.628 3.544 3.544 0 00-.085.806c0 .332.031.618.094.858.062.238.151.435.267.59.116.154.256.268.422.343.169.072.359.108.572.108.15 0 .292-.027.426-.08.135-.056.255-.136.361-.239.107-.106.197-.236.272-.389.075-.153.128-.326.16-.52h.806zm.844-1.749c.009-.306.067-.564.173-.773.106-.213.25-.384.431-.516.181-.13.396-.225.642-.28.25-.06.522-.09.816-.09.244 0 .48.025.708.075.231.05.436.131.614.244.178.11.32.253.426.431.11.175.165.39.165.642v2.92c0 .082.021.152.065.211.044.057.114.085.211.085a1.02 1.02 0 00.281-.038v.596a5.238 5.238 0 01-.215.051 1.769 1.769 0 01-.638-.014.725.725 0 01-.272-.122.6.6 0 01-.168-.225 1.1 1.1 0 01-.08-.342 3.604 3.604 0 01-.338.324 2.2 2.2 0 01-.398.257 2.23 2.23 0 01-.492.17 2.626 2.626 0 01-.614.065c-.194 0-.383-.032-.567-.094a1.56 1.56 0 01-.493-.277 1.397 1.397 0 01-.347-.45 1.436 1.436 0 01-.131-.628c0-.26.044-.483.131-.67.088-.19.202-.349.343-.474.14-.128.301-.226.482-.295.182-.069.366-.114.554-.136l1.411-.173a.467.467 0 00.314-.155c.078-.09.117-.234.117-.431 0-.303-.1-.52-.3-.652-.197-.134-.481-.201-.853-.201-.382 0-.666.081-.853.244-.188.159-.294.4-.319.721h-.806zm3.112.961a.952.952 0 01-.258.127c-.1.031-.211.058-.333.08a9.231 9.231 0 01-.389.06 18.1 18.1 0 00-.412.052 2.74 2.74 0 00-.431.094 1.28 1.28 0 00-.343.16.73.73 0 00-.225.238.63.63 0 00-.079.324c0 .143.022.27.065.38.047.109.11.2.188.276a.79.79 0 00.29.169c.113.037.236.056.371.056.084 0 .181-.01.29-.028a2.5 2.5 0 00.338-.094 2.02 2.02 0 00.337-.155c.113-.065.213-.143.3-.234.088-.09.158-.194.211-.31a.923.923 0 00.08-.388v-.807zm3.595-4.415c.041.2.125.36.253.478.129.115.318.173.568.173.253 0 .443-.056.572-.169a.829.829 0 00.248-.482h.802a1.164 1.164 0 01-.122.51c-.078.15-.189.279-.333.385a1.57 1.57 0 01-.511.248 2.385 2.385 0 01-.656.085 2.36 2.36 0 01-.657-.085 1.537 1.537 0 01-.506-.243 1.204 1.204 0 01-.333-.385 1.175 1.175 0 01-.122-.515h.797zm-1.354 1.95h.862v3.848h.019l2.466-3.848h.989V29h-.868v-3.848h-.018L111.019 29h-.989v-5.02zm6.942.75h-1.73v-.75h4.322v.75h-1.73V29h-.862v-4.27zm6.97 1.753c0-.278-.031-.533-.094-.764a1.761 1.761 0 00-.281-.605 1.321 1.321 0 00-1.097-.54 1.32 1.32 0 00-1.092.54 1.76 1.76 0 00-.281.605 2.904 2.904 0 00-.094.764c0 .281.031.54.094.778.062.234.156.436.281.605.125.168.278.301.46.398.181.094.392.14.632.14.241 0 .452-.046.633-.14a1.35 1.35 0 00.464-.398 1.76 1.76 0 00.281-.605 3.03 3.03 0 00.094-.778zm.863 0c0 .412-.053.784-.16 1.115a2.386 2.386 0 01-.459.84c-.2.23-.445.409-.736.534a2.487 2.487 0 01-.98.183c-.365 0-.692-.061-.979-.183a2.015 2.015 0 01-.732-.535c-.2-.23-.353-.51-.459-.839a3.651 3.651 0 01-.159-1.115c0-.406.053-.774.159-1.102.106-.328.259-.608.459-.839.2-.231.444-.408.732-.53.287-.125.614-.187.979-.187.366 0 .693.063.98.188.291.121.536.298.736.53.2.23.353.51.459.838.107.328.16.696.16 1.102zm.975-2.503h2.137c.613 0 1.071.114 1.374.342.306.228.459.56.459.994a.987.987 0 01-.169.586c-.112.159-.261.3-.445.421.266.1.477.244.633.432.156.187.234.43.234.726 0 .235-.039.446-.117.633a1.22 1.22 0 01-.356.478c-.16.131-.363.233-.61.305a3.212 3.212 0 01-.867.103h-2.273v-5.02zm.862 4.33h1.313c.228 0 .417-.016.567-.05a.999.999 0 00.366-.16.575.575 0 00.192-.248.914.914 0 00.056-.329.914.914 0 00-.056-.328.54.54 0 00-.192-.248.947.947 0 00-.366-.155 2.39 2.39 0 00-.567-.056h-1.313v1.575zm0-2.207h1.303c.291 0 .521-.058.689-.173.169-.116.254-.296.254-.54a.74.74 0 00-.071-.342.606.606 0 00-.187-.225.712.712 0 00-.267-.117 1.197 1.197 0 00-.3-.037h-1.421v1.434z" fill="#FFFDF6" fill-opacity=".6"/></svg>