<svg width="160" height="31" viewBox="0 0 160 31" fill="none" xmlns="http://www.w3.org/2000/svg">
<path d="M9.14241 9.9507L3.13751 0.760563H0V18H4.21797L4.17642 9.29577L7.97883 15.2746H10.306L14.0876 9.35915V18H18.2848V0.760563H15.1473L9.14241 9.9507Z" fill="#0094FF"/>
<path d="M27.2818 5.0493C23.4378 5.0493 20.6328 7.8169 20.6328 11.5141C20.6328 15.2746 23.4586 18 27.2818 18C31.0842 18 33.91 15.2746 33.91 11.5141C33.91 7.79577 31.0842 5.0493 27.2818 5.0493ZM27.2818 14.5141C25.578 14.5141 24.4767 13.2465 24.4767 11.5141C24.4767 9.84507 25.5987 8.49296 27.2818 8.49296C28.944 8.49296 30.0661 9.84507 30.0661 11.5141C30.0661 13.2465 28.944 14.5141 27.2818 14.5141Z" fill="#0094FF"/>
<path d="M43.2602 5.3662C41.972 5.3662 40.9123 5.76761 39.9357 6.50704V5.70423H35.8632V18H39.9357V10.2676C40.6422 9.48592 41.411 9.10563 42.1382 9.10563C43.4888 9.10563 44.3615 9.88732 44.3615 11.6408V18H48.3924V10.9648C48.3924 7.47887 46.2938 5.3662 43.2602 5.3662Z" fill="#0094FF"/>
<path d="M56.9738 5.0493C53.1299 5.0493 50.3248 7.8169 50.3248 11.5141C50.3248 15.2746 53.1506 18 56.9738 18C60.7762 18 63.6021 15.2746 63.6021 11.5141C63.6021 7.79577 60.7762 5.0493 56.9738 5.0493ZM56.9738 14.5141C55.27 14.5141 54.1688 13.2465 54.1688 11.5141C54.1688 9.84507 55.2908 8.49296 56.9738 8.49296C58.6361 8.49296 59.7581 9.84507 59.7581 11.5141C59.7581 13.2465 58.6361 14.5141 56.9738 14.5141Z" fill="#0094FF"/>
<path d="M80.6194 5.3662C78.8325 5.3662 77.6066 5.85211 76.3183 6.99296C75.4249 5.95775 74.1158 5.3662 72.599 5.3662C71.2692 5.3662 70.4381 5.72535 69.6277 6.40141V5.70423H65.5552V18H69.6277V10.1197C70.2095 9.38028 70.8329 9.10563 71.4147 9.10563C72.7237 9.10563 73.5756 9.88732 73.5756 11.6408V18H77.6066V10.9648C77.6066 10.669 77.5858 10.3521 77.565 10.0775C78.1676 9.33803 78.7909 9.08451 79.4143 9.08451C80.7441 9.08451 81.5752 9.8662 81.5752 11.6197V17.9789H85.6062V10.9648C85.627 7.47887 83.5284 5.3662 80.6194 5.3662Z" fill="#0094FF"/>
<path d="M94.2291 5.0493C90.3852 5.0493 87.5801 7.8169 87.5801 11.5141C87.5801 15.2746 90.4059 18 94.2291 18C98.0315 18 100.857 15.2746 100.857 11.5141C100.857 7.79577 98.0315 5.0493 94.2291 5.0493ZM94.2291 14.5141C92.5253 14.5141 91.4241 13.2465 91.4241 11.5141C91.4241 9.84507 92.5461 8.49296 94.2291 8.49296C95.8914 8.49296 97.0134 9.84507 97.0134 11.5141C97.0134 13.2465 95.8914 14.5141 94.2291 14.5141Z" fill="#0094FF"/>
<path d="M107.049 0H102.977V18H107.049V0Z" fill="#0094FF"/>
<path d="M115.818 5.0493C111.974 5.0493 109.169 7.8169 109.169 11.5141C109.169 15.2746 111.994 18 115.818 18C119.62 18 122.446 15.2746 122.446 11.5141C122.446 7.79577 119.62 5.0493 115.818 5.0493ZM115.818 14.5141C114.114 14.5141 113.013 13.2465 113.013 11.5141C113.013 9.84507 114.135 8.49296 115.818 8.49296C117.48 8.49296 118.602 9.84507 118.602 11.5141C118.602 13.2465 117.48 14.5141 115.818 14.5141Z" fill="#0094FF"/>
<path d="M130.736 8.53521C131.962 8.53521 132.897 9.3169 133.105 10.4366H136.908C136.617 7.26761 134.04 5.07042 130.695 5.07042C126.913 5.07042 124.087 7.8169 124.087 11.5352C124.087 15.2958 126.913 18 130.695 18C134.04 18 136.596 15.8239 136.908 12.6549H133.105C132.897 13.7746 131.962 14.5352 130.736 14.5352C128.991 14.5352 127.973 13.2254 127.973 11.5352C127.973 9.84507 128.991 8.53521 130.736 8.53521Z" fill="#0094FF"/>
<path d="M145.219 5.0493C141.375 5.0493 138.57 7.8169 138.57 11.5141C138.57 15.2746 141.396 18 145.219 18C149.021 18 151.847 15.2746 151.847 11.5141C151.847 7.79577 149.021 5.0493 145.219 5.0493ZM145.219 14.5141C143.515 14.5141 142.414 13.2465 142.414 11.5141C142.414 9.84507 143.536 8.49296 145.219 8.49296C146.881 8.49296 148.003 9.84507 148.003 11.5141C148.003 13.2465 146.881 14.5141 145.219 14.5141Z" fill="#0094FF"/>
<path d="M157.79 6.19014C157.727 6.12676 157.644 6.08451 157.54 6.04225C157.79 6.02113 157.997 5.93662 158.143 5.76761C158.288 5.59859 158.371 5.40845 158.371 5.19718C158.371 5.0493 158.33 4.90141 158.226 4.75352C158.143 4.62676 158.018 4.52113 157.852 4.45775C157.707 4.39437 157.457 4.37324 157.104 4.37324H156.107V7.33099H156.585V6.06338H156.855C157.021 6.06338 157.146 6.10563 157.229 6.16901C157.353 6.25352 157.52 6.48592 157.727 6.8662L157.977 7.33099H158.558L158.205 6.76056C158.06 6.50704 157.914 6.3169 157.79 6.19014ZM157.166 5.70423H156.605V4.79577H157.146C157.374 4.79577 157.54 4.8169 157.623 4.83803C157.707 4.85915 157.769 4.92253 157.831 4.98591C157.894 5.0493 157.894 5.1338 157.894 5.21831C157.894 5.34507 157.852 5.47183 157.748 5.55634C157.644 5.64084 157.457 5.70423 157.166 5.70423Z" fill="#0094FF"/>
<path d="M159.66 4.45775C159.41 4.01408 159.078 3.67606 158.642 3.44366C158.205 3.21127 157.769 3.08451 157.312 3.08451C156.855 3.08451 156.418 3.21127 155.982 3.44366C155.546 3.67606 155.213 4.01408 154.964 4.45775C154.714 4.90141 154.59 5.3662 154.59 5.83099C154.59 6.29577 154.714 6.76056 154.943 7.20423C155.192 7.64789 155.525 7.98592 155.94 8.21831C156.377 8.4507 156.813 8.57746 157.291 8.57746C157.769 8.57746 158.205 8.4507 158.642 8.21831C159.078 7.98592 159.41 7.62676 159.639 7.20423C159.867 6.76056 159.992 6.3169 159.992 5.83099C160.034 5.3662 159.909 4.90141 159.66 4.45775ZM159.286 6.99296C159.078 7.35211 158.808 7.64789 158.455 7.83803C158.101 8.0493 157.727 8.1338 157.333 8.1338C156.938 8.1338 156.564 8.02817 156.21 7.83803C155.857 7.62676 155.566 7.35211 155.379 6.99296C155.172 6.6338 155.088 6.25352 155.088 5.85211C155.088 5.4507 155.192 5.07042 155.4 4.69014C155.608 4.33099 155.878 4.03521 156.252 3.84507C156.605 3.65493 156.979 3.5493 157.374 3.5493C157.748 3.5493 158.122 3.65493 158.475 3.84507C158.829 4.03521 159.119 4.33099 159.327 4.69014C159.535 5.0493 159.639 5.4507 159.639 5.85211C159.577 6.23239 159.493 6.61268 159.286 6.99296Z" fill="#0094FF"/>
<path d="M56.9738 3.76056C57.8049 3.76056 58.366 3.12676 58.366 2.26056C58.366 1.41549 57.8049 0.760563 56.9738 0.760563C56.1219 0.760563 55.5609 1.43662 55.5609 2.26056C55.5609 3.12676 56.1219 3.76056 56.9738 3.76056Z" fill="#0094FF"/>
<path d="M0.7875 22.1094H3.91875C4.28438 22.1094 4.60156 22.1594 4.87031 22.2594C5.14219 22.3594 5.36719 22.5047 5.54531 22.6953C5.72344 22.8859 5.85625 23.1172 5.94375 23.3891C6.03125 23.6609 6.075 23.9703 6.075 24.3172C6.075 24.6391 6.02344 24.9359 5.92031 25.2078C5.81719 25.4766 5.66719 25.7094 5.47031 25.9062C5.27656 26.1 5.03906 26.2516 4.75781 26.3609C4.47656 26.4703 4.15781 26.525 3.80156 26.525H2.22656V29H0.7875V22.1094ZM2.22656 25.3344H3.59063C3.91563 25.3344 4.17031 25.2547 4.35469 25.0953C4.54219 24.9359 4.63594 24.6766 4.63594 24.3172C4.63594 24.1359 4.61094 23.9812 4.56094 23.8531C4.51406 23.725 4.44531 23.6203 4.35469 23.5391C4.26719 23.4547 4.15781 23.3937 4.02656 23.3562C3.89844 23.3156 3.75313 23.2953 3.59063 23.2953H2.22656V25.3344ZM11.1656 27.9922C11.1656 28.1453 11.1734 28.2719 11.1891 28.3719C11.2078 28.4687 11.2313 28.5469 11.2594 28.6062C11.2875 28.6625 11.3188 28.7047 11.3531 28.7328C11.3906 28.7578 11.4297 28.7766 11.4703 28.7891V29H10.0031C9.97813 28.9406 9.95 28.8625 9.91875 28.7656C9.89063 28.6656 9.87656 28.5453 9.87656 28.4047C9.77344 28.5109 9.67188 28.6094 9.57188 28.7C9.475 28.7906 9.36563 28.8703 9.24375 28.9391C9.12188 29.0047 8.98125 29.0563 8.82188 29.0938C8.6625 29.1344 8.47031 29.1547 8.24531 29.1547C8.01719 29.1547 7.80625 29.1203 7.6125 29.0516C7.42188 28.9859 7.25625 28.8875 7.11563 28.7562C6.975 28.625 6.86563 28.4609 6.7875 28.2641C6.70938 28.0672 6.67031 27.8391 6.67031 27.5797C6.67031 27.3703 6.70313 27.1766 6.76875 26.9984C6.83438 26.8172 6.92656 26.6594 7.04531 26.525C7.16719 26.3875 7.31406 26.275 7.48594 26.1875C7.66094 26.0969 7.85625 26.0359 8.07188 26.0047L9.37031 25.8125C9.41719 25.8062 9.46719 25.7969 9.52031 25.7844C9.57656 25.7719 9.62813 25.7516 9.675 25.7234C9.72188 25.6922 9.76094 25.6516 9.79219 25.6016C9.82344 25.5484 9.83906 25.4781 9.83906 25.3906C9.83906 25.3062 9.825 25.2297 9.79688 25.1609C9.77188 25.0891 9.72813 25.0281 9.66563 24.9781C9.60313 24.925 9.51875 24.8844 9.4125 24.8562C9.30938 24.8281 9.17969 24.8141 9.02344 24.8141C8.84531 24.8141 8.70156 24.8328 8.59219 24.8703C8.48594 24.9047 8.40156 24.9547 8.33906 25.0203C8.27656 25.0828 8.23125 25.1578 8.20313 25.2453C8.175 25.3297 8.15469 25.4203 8.14219 25.5172H6.81563C6.81563 25.4547 6.825 25.3687 6.84375 25.2594C6.86563 25.1469 6.90313 25.025 6.95625 24.8937C7.0125 24.7625 7.08906 24.6297 7.18594 24.4953C7.28594 24.3609 7.41563 24.2391 7.575 24.1297C7.7375 24.0172 7.93438 23.925 8.16563 23.8531C8.39688 23.7812 8.67344 23.7437 8.99531 23.7406C9.45156 23.7406 9.82031 23.7875 10.1016 23.8812C10.3859 23.9719 10.6063 24.0922 10.7625 24.2422C10.9219 24.3891 11.0281 24.5547 11.0813 24.7391C11.1375 24.9203 11.1656 25.1016 11.1656 25.2828V27.9922ZM9.83906 26.5062C9.75781 26.55 9.67656 26.5906 9.59531 26.6281C9.51406 26.6625 9.40625 26.6922 9.27188 26.7172L8.92031 26.7828C8.76719 26.8109 8.63281 26.8437 8.51719 26.8812C8.40156 26.9187 8.30469 26.9687 8.22656 27.0312C8.15156 27.0906 8.09375 27.1641 8.05313 27.2516C8.01563 27.3391 7.99688 27.4484 7.99688 27.5797C7.99688 27.6891 8.01406 27.7844 8.04844 27.8656C8.08281 27.9437 8.12969 28.0094 8.18906 28.0625C8.25156 28.1125 8.32344 28.15 8.40469 28.175C8.48594 28.2 8.57344 28.2125 8.66719 28.2125C8.71719 28.2125 8.78125 28.2078 8.85938 28.1984C8.9375 28.1859 9.02031 28.1641 9.10781 28.1328C9.19531 28.1016 9.28281 28.0594 9.37031 28.0062C9.45781 27.95 9.53594 27.8781 9.60469 27.7906C9.67344 27.7031 9.72969 27.5969 9.77344 27.4719C9.81719 27.3437 9.83906 27.1937 9.83906 27.0219V26.5062ZM12.0844 25.3062C12.0875 25.025 12.1438 24.7859 12.2531 24.5891C12.3656 24.3891 12.5172 24.2266 12.7078 24.1016C12.8984 23.9766 13.1234 23.8859 13.3828 23.8297C13.6422 23.7703 13.9219 23.7406 14.2219 23.7406C14.5594 23.7406 14.85 23.7812 15.0938 23.8625C15.3375 23.9437 15.5391 24.0516 15.6984 24.1859C15.8578 24.3203 15.975 24.475 16.05 24.65C16.125 24.8219 16.1625 24.9984 16.1625 25.1797C16.1625 25.3297 16.1406 25.4641 16.0969 25.5828C16.0531 25.6984 15.9938 25.8 15.9188 25.8875C15.8438 25.9719 15.7563 26.0422 15.6563 26.0984C15.5594 26.1547 15.4578 26.1969 15.3516 26.225V26.2437C15.5297 26.2719 15.6813 26.325 15.8063 26.4031C15.9313 26.4781 16.0328 26.5687 16.1109 26.675C16.1891 26.7812 16.2453 26.8984 16.2797 27.0266C16.3172 27.1516 16.3359 27.275 16.3359 27.3969C16.3359 27.7156 16.2734 27.9859 16.1484 28.2078C16.0234 28.4297 15.8594 28.6109 15.6563 28.7516C15.4563 28.8922 15.2297 28.9937 14.9766 29.0563C14.7266 29.1219 14.475 29.1547 14.2219 29.1547C13.8906 29.1547 13.5859 29.1234 13.3078 29.0609C13.0328 29.0016 12.7953 28.9031 12.5953 28.7656C12.3984 28.625 12.2438 28.4437 12.1313 28.2219C12.0188 27.9969 11.9609 27.7219 11.9578 27.3969H13.2234C13.2234 27.5156 13.2453 27.625 13.2891 27.725C13.3328 27.825 13.3938 27.9109 13.4719 27.9828C13.55 28.0547 13.6438 28.1109 13.7531 28.1516C13.8625 28.1922 13.9844 28.2125 14.1188 28.2125C14.2813 28.2125 14.4156 28.1875 14.5219 28.1375C14.6313 28.0844 14.7172 28.0187 14.7797 27.9406C14.8422 27.8625 14.8859 27.7797 14.9109 27.6922C14.9391 27.6016 14.9531 27.5187 14.9531 27.4437C14.9531 27.2 14.8859 27.0297 14.7516 26.9328C14.6203 26.8328 14.4094 26.7828 14.1188 26.7828H13.5094V25.8969H14.0203C14.3172 25.8969 14.5266 25.8453 14.6484 25.7422C14.7734 25.6391 14.8359 25.4891 14.8359 25.2922C14.8359 25.1766 14.8172 25.0797 14.7797 25.0016C14.7453 24.9234 14.6953 24.8609 14.6297 24.8141C14.5672 24.7641 14.4922 24.7297 14.4047 24.7109C14.3172 24.6891 14.2219 24.6781 14.1188 24.6781C13.8844 24.6781 13.6938 24.7328 13.5469 24.8422C13.4031 24.9484 13.3313 25.1031 13.3313 25.3062H12.0844ZM17.1422 23.8906H18.4078V24.6219H18.4266C18.5172 24.4687 18.6125 24.3375 18.7125 24.2281C18.8125 24.1156 18.9234 24.0234 19.0453 23.9516C19.1672 23.8797 19.3016 23.8266 19.4484 23.7922C19.5984 23.7578 19.7672 23.7406 19.9547 23.7406C20.1109 23.7406 20.2719 23.7594 20.4375 23.7969C20.6031 23.8344 20.7641 23.8953 20.9203 23.9797C21.0797 24.0609 21.2297 24.1687 21.3703 24.3031C21.5109 24.4344 21.6344 24.5969 21.7406 24.7906C21.8469 24.9844 21.9313 25.2109 21.9938 25.4703C22.0563 25.7266 22.0875 26.0203 22.0875 26.3516C22.0875 26.7641 22.0422 27.1422 21.9516 27.4859C21.8641 27.8297 21.7297 28.125 21.5484 28.3719C21.3703 28.6187 21.1438 28.8109 20.8688 28.9484C20.5969 29.0859 20.2766 29.1547 19.9078 29.1547C19.7797 29.1547 19.65 29.1422 19.5188 29.1172C19.3875 29.0922 19.2594 29.05 19.1344 28.9906C19.0094 28.9312 18.8906 28.8516 18.7781 28.7516C18.6688 28.6484 18.5719 28.5203 18.4875 28.3672H18.4688V30.9781H17.1422V23.8906ZM19.5609 24.9312C19.3484 24.9312 19.1688 24.9766 19.0219 25.0672C18.8781 25.1578 18.7609 25.275 18.6703 25.4187C18.5828 25.5625 18.5188 25.725 18.4781 25.9062C18.4375 26.0875 18.4172 26.2672 18.4172 26.4453C18.4172 26.5422 18.4219 26.6484 18.4313 26.7641C18.4438 26.8766 18.4656 26.9922 18.4969 27.1109C18.5281 27.2266 18.5703 27.3391 18.6234 27.4484C18.6797 27.5578 18.75 27.6547 18.8344 27.7391C18.9188 27.8234 19.0203 27.8922 19.1391 27.9453C19.2578 27.9953 19.3984 28.0203 19.5609 28.0203C19.7234 28.0203 19.8641 27.9953 19.9828 27.9453C20.1016 27.8922 20.2031 27.8234 20.2875 27.7391C20.3719 27.6547 20.4406 27.5578 20.4938 27.4484C20.55 27.3391 20.5938 27.2266 20.625 27.1109C20.6563 26.9922 20.6766 26.8766 20.6859 26.7641C20.6984 26.6484 20.7047 26.5422 20.7047 26.4453C20.7047 26.2672 20.6844 26.0875 20.6438 25.9062C20.6031 25.725 20.5375 25.5625 20.4469 25.4187C20.3594 25.275 20.2422 25.1578 20.0953 25.0672C19.9484 24.9766 19.7703 24.9312 19.5609 24.9312ZM27.1781 27.9922C27.1781 28.1453 27.1859 28.2719 27.2016 28.3719C27.2203 28.4687 27.2438 28.5469 27.2719 28.6062C27.3 28.6625 27.3313 28.7047 27.3656 28.7328C27.4031 28.7578 27.4422 28.7766 27.4828 28.7891V29H26.0156C25.9906 28.9406 25.9625 28.8625 25.9313 28.7656C25.9031 28.6656 25.8891 28.5453 25.8891 28.4047C25.7859 28.5109 25.6844 28.6094 25.5844 28.7C25.4875 28.7906 25.3781 28.8703 25.2563 28.9391C25.1344 29.0047 24.9938 29.0563 24.8344 29.0938C24.675 29.1344 24.4828 29.1547 24.2578 29.1547C24.0297 29.1547 23.8188 29.1203 23.625 29.0516C23.4344 28.9859 23.2688 28.8875 23.1281 28.7562C22.9875 28.625 22.8781 28.4609 22.8 28.2641C22.7219 28.0672 22.6828 27.8391 22.6828 27.5797C22.6828 27.3703 22.7156 27.1766 22.7813 26.9984C22.8469 26.8172 22.9391 26.6594 23.0578 26.525C23.1797 26.3875 23.3266 26.275 23.4984 26.1875C23.6734 26.0969 23.8688 26.0359 24.0844 26.0047L25.3828 25.8125C25.4297 25.8062 25.4797 25.7969 25.5328 25.7844C25.5891 25.7719 25.6406 25.7516 25.6875 25.7234C25.7344 25.6922 25.7734 25.6516 25.8047 25.6016C25.8359 25.5484 25.8516 25.4781 25.8516 25.3906C25.8516 25.3062 25.8375 25.2297 25.8094 25.1609C25.7844 25.0891 25.7406 25.0281 25.6781 24.9781C25.6156 24.925 25.5313 24.8844 25.425 24.8562C25.3219 24.8281 25.1922 24.8141 25.0359 24.8141C24.8578 24.8141 24.7141 24.8328 24.6047 24.8703C24.4984 24.9047 24.4141 24.9547 24.3516 25.0203C24.2891 25.0828 24.2438 25.1578 24.2156 25.2453C24.1875 25.3297 24.1672 25.4203 24.1547 25.5172H22.8281C22.8281 25.4547 22.8375 25.3687 22.8563 25.2594C22.8781 25.1469 22.9156 25.025 22.9688 24.8937C23.025 24.7625 23.1016 24.6297 23.1984 24.4953C23.2984 24.3609 23.4281 24.2391 23.5875 24.1297C23.75 24.0172 23.9469 23.925 24.1781 23.8531C24.4094 23.7812 24.6859 23.7437 25.0078 23.7406C25.4641 23.7406 25.8328 23.7875 26.1141 23.8812C26.3984 23.9719 26.6188 24.0922 26.775 24.2422C26.9344 24.3891 27.0406 24.5547 27.0938 24.7391C27.15 24.9203 27.1781 25.1016 27.1781 25.2828V27.9922ZM25.8516 26.5062C25.7703 26.55 25.6891 26.5906 25.6078 26.6281C25.5266 26.6625 25.4188 26.6922 25.2844 26.7172L24.9328 26.7828C24.7797 26.8109 24.6453 26.8437 24.5297 26.8812C24.4141 26.9187 24.3172 26.9687 24.2391 27.0312C24.1641 27.0906 24.1063 27.1641 24.0656 27.2516C24.0281 27.3391 24.0094 27.4484 24.0094 27.5797C24.0094 27.6891 24.0266 27.7844 24.0609 27.8656C24.0953 27.9437 24.1422 28.0094 24.2016 28.0625C24.2641 28.1125 24.3359 28.15 24.4172 28.175C24.4984 28.2 24.5859 28.2125 24.6797 28.2125C24.7297 28.2125 24.7938 28.2078 24.8719 28.1984C24.95 28.1859 25.0328 28.1641 25.1203 28.1328C25.2078 28.1016 25.2953 28.0594 25.3828 28.0062C25.4703 27.95 25.5484 27.8781 25.6172 27.7906C25.6859 27.7031 25.7422 27.5969 25.7859 27.4719C25.8297 27.3437 25.8516 27.1937 25.8516 27.0219V26.5062ZM32.8547 22.0297C32.8578 22.2922 32.8125 22.5078 32.7188 22.6766C32.625 22.8422 32.5 22.9766 32.3438 23.0797C32.1906 23.1797 32.0125 23.2531 31.8094 23.3C31.6094 23.3437 31.4031 23.3734 31.1906 23.3891C31.0438 23.4016 30.8922 23.4219 30.7359 23.45C30.5797 23.475 30.4266 23.5156 30.2766 23.5719C30.1266 23.625 29.9844 23.6969 29.85 23.7875C29.7156 23.875 29.5953 23.9844 29.4891 24.1156C29.3828 24.2469 29.2953 24.4031 29.2266 24.5844C29.1578 24.7656 29.1156 24.9781 29.1 25.2219C29.15 25.0594 29.2297 24.9062 29.3391 24.7625C29.4484 24.6156 29.5844 24.4891 29.7469 24.3828C29.9125 24.2734 30.1031 24.1875 30.3188 24.125C30.5344 24.0594 30.7734 24.0266 31.0359 24.0266C31.3859 24.0266 31.7016 24.0859 31.9828 24.2047C32.2641 24.3203 32.5031 24.4844 32.7 24.6969C32.8969 24.9094 33.0469 25.1656 33.15 25.4656C33.2563 25.7656 33.3094 26.0984 33.3094 26.4641C33.3094 26.8703 33.2484 27.2391 33.1266 27.5703C33.0078 27.9016 32.8359 28.1859 32.6109 28.4234C32.3891 28.6578 32.1172 28.8406 31.7953 28.9719C31.4734 29.1 31.1109 29.1641 30.7078 29.1641C30.1203 29.1641 29.6344 29.0438 29.25 28.8031C28.8656 28.5625 28.5703 28.1703 28.3641 27.6266C28.2953 27.4422 28.2422 27.2469 28.2047 27.0406C28.1672 26.8344 28.1391 26.6406 28.1203 26.4594C28.1047 26.2781 28.0953 26.1203 28.0922 25.9859C28.0891 25.8516 28.0875 25.7625 28.0875 25.7187C28.0875 25.2312 28.1438 24.7859 28.2563 24.3828C28.3688 23.9766 28.5469 23.6234 28.7906 23.3234C29.0375 23.0234 29.3531 22.7812 29.7375 22.5969C30.125 22.4125 30.5938 22.2953 31.1438 22.2453C31.3188 22.2297 31.4422 22.2016 31.5141 22.1609C31.5891 22.1172 31.6359 22.0734 31.6547 22.0297H32.8547ZM29.4797 26.4453C29.4797 26.6391 29.5 26.8312 29.5406 27.0219C29.5844 27.2094 29.6547 27.3781 29.7516 27.5281C29.8484 27.675 29.975 27.7937 30.1313 27.8844C30.2875 27.975 30.4797 28.0203 30.7078 28.0203C30.9484 28.0203 31.1469 27.9766 31.3031 27.8891C31.4625 27.7984 31.5891 27.6812 31.6828 27.5375C31.7766 27.3906 31.8422 27.2234 31.8797 27.0359C31.9172 26.8453 31.9359 26.6484 31.9359 26.4453C31.9359 26.2453 31.9141 26.0578 31.8703 25.8828C31.8266 25.7078 31.7578 25.5562 31.6641 25.4281C31.5703 25.2969 31.4484 25.1953 31.2984 25.1234C31.1484 25.0484 30.9672 25.0109 30.7547 25.0109C30.5266 25.0109 30.3313 25.05 30.1688 25.1281C30.0094 25.2031 29.8781 25.3062 29.775 25.4375C29.6719 25.5687 29.5969 25.7219 29.55 25.8969C29.5031 26.0687 29.4797 26.2516 29.4797 26.4453ZM33.9562 26.4453C33.9562 26.0516 34.0156 25.6891 34.1344 25.3578C34.2562 25.0266 34.4297 24.7422 34.6547 24.5047C34.8828 24.2641 35.1578 24.0766 35.4797 23.9422C35.8016 23.8078 36.1641 23.7406 36.5672 23.7406C36.9766 23.7406 37.3422 23.8078 37.6641 23.9422C37.9891 24.0766 38.2625 24.2641 38.4844 24.5047C38.7094 24.7422 38.8812 25.0266 39 25.3578C39.1187 25.6891 39.1781 26.0516 39.1781 26.4453C39.1781 26.8391 39.1187 27.2016 39 27.5328C38.8812 27.8641 38.7094 28.15 38.4844 28.3906C38.2625 28.6312 37.9891 28.8187 37.6641 28.9531C37.3422 29.0875 36.9766 29.1547 36.5672 29.1547C36.1641 29.1547 35.8016 29.0875 35.4797 28.9531C35.1578 28.8187 34.8828 28.6312 34.6547 28.3906C34.4297 28.15 34.2562 27.8641 34.1344 27.5328C34.0156 27.2016 33.9562 26.8391 33.9562 26.4453ZM35.3391 26.4453C35.3391 26.6391 35.3594 26.8312 35.4 27.0219C35.4437 27.2094 35.5141 27.3781 35.6109 27.5281C35.7078 27.675 35.8344 27.7937 35.9906 27.8844C36.1469 27.975 36.3391 28.0203 36.5672 28.0203C36.8047 28.0203 37.0016 27.9766 37.1578 27.8891C37.3172 27.7984 37.4437 27.6812 37.5375 27.5375C37.6312 27.3906 37.6969 27.2234 37.7344 27.0359C37.775 26.8453 37.7953 26.6484 37.7953 26.4453C37.7953 26.2453 37.775 26.05 37.7344 25.8594C37.6969 25.6687 37.6312 25.5016 37.5375 25.3578C37.4437 25.2109 37.3172 25.0937 37.1578 25.0062C37.0016 24.9156 36.8047 24.8703 36.5672 24.8703C36.3391 24.8703 36.1469 24.9156 35.9906 25.0062C35.8344 25.0969 35.7078 25.2172 35.6109 25.3672C35.5141 25.5141 35.4437 25.6828 35.4 25.8734C35.3594 26.0609 35.3391 26.2516 35.3391 26.4453ZM41.2453 24.9687H39.6984V23.8906H44.1141V24.9687H42.5672V29H41.2453V24.9687ZM44.9766 23.8906H46.3031V25.8312L48.2156 23.8906H49.9781L47.8688 26.0141L50.0672 29H48.3375L46.8375 26.8437L46.3031 27.3828V29H44.9766V23.8906ZM54.9375 27.9922C54.9375 28.1453 54.9453 28.2719 54.9609 28.3719C54.9797 28.4687 55.0031 28.5469 55.0313 28.6062C55.0594 28.6625 55.0906 28.7047 55.125 28.7328C55.1625 28.7578 55.2016 28.7766 55.2422 28.7891V29H53.775C53.75 28.9406 53.7219 28.8625 53.6906 28.7656C53.6625 28.6656 53.6484 28.5453 53.6484 28.4047C53.5453 28.5109 53.4438 28.6094 53.3438 28.7C53.2469 28.7906 53.1375 28.8703 53.0156 28.9391C52.8938 29.0047 52.7531 29.0563 52.5938 29.0938C52.4344 29.1344 52.2422 29.1547 52.0172 29.1547C51.7891 29.1547 51.5781 29.1203 51.3844 29.0516C51.1938 28.9859 51.0281 28.8875 50.8875 28.7562C50.7469 28.625 50.6375 28.4609 50.5594 28.2641C50.4813 28.0672 50.4422 27.8391 50.4422 27.5797C50.4422 27.3703 50.475 27.1766 50.5406 26.9984C50.6063 26.8172 50.6984 26.6594 50.8172 26.525C50.9391 26.3875 51.0859 26.275 51.2578 26.1875C51.4328 26.0969 51.6281 26.0359 51.8438 26.0047L53.1422 25.8125C53.1891 25.8062 53.2391 25.7969 53.2922 25.7844C53.3484 25.7719 53.4 25.7516 53.4469 25.7234C53.4938 25.6922 53.5328 25.6516 53.5641 25.6016C53.5953 25.5484 53.6109 25.4781 53.6109 25.3906C53.6109 25.3062 53.5969 25.2297 53.5688 25.1609C53.5438 25.0891 53.5 25.0281 53.4375 24.9781C53.375 24.925 53.2906 24.8844 53.1844 24.8562C53.0813 24.8281 52.9516 24.8141 52.7953 24.8141C52.6172 24.8141 52.4734 24.8328 52.3641 24.8703C52.2578 24.9047 52.1734 24.9547 52.1109 25.0203C52.0484 25.0828 52.0031 25.1578 51.975 25.2453C51.9469 25.3297 51.9266 25.4203 51.9141 25.5172H50.5875C50.5875 25.4547 50.5969 25.3687 50.6156 25.2594C50.6375 25.1469 50.675 25.025 50.7281 24.8937C50.7844 24.7625 50.8609 24.6297 50.9578 24.4953C51.0578 24.3609 51.1875 24.2391 51.3469 24.1297C51.5094 24.0172 51.7063 23.925 51.9375 23.8531C52.1688 23.7812 52.4453 23.7437 52.7672 23.7406C53.2234 23.7406 53.5922 23.7875 53.8734 23.8812C54.1578 23.9719 54.3781 24.0922 54.5344 24.2422C54.6938 24.3891 54.8 24.5547 54.8531 24.7391C54.9094 24.9203 54.9375 25.1016 54.9375 25.2828V27.9922ZM53.6109 26.5062C53.5297 26.55 53.4484 26.5906 53.3672 26.6281C53.2859 26.6625 53.1781 26.6922 53.0438 26.7172L52.6922 26.7828C52.5391 26.8109 52.4047 26.8437 52.2891 26.8812C52.1734 26.9187 52.0766 26.9687 51.9984 27.0312C51.9234 27.0906 51.8656 27.1641 51.825 27.2516C51.7875 27.3391 51.7688 27.4484 51.7688 27.5797C51.7688 27.6891 51.7859 27.7844 51.8203 27.8656C51.8547 27.9437 51.9016 28.0094 51.9609 28.0625C52.0234 28.1125 52.0953 28.15 52.1766 28.175C52.2578 28.2 52.3453 28.2125 52.4391 28.2125C52.4891 28.2125 52.5531 28.2078 52.6313 28.1984C52.7094 28.1859 52.7922 28.1641 52.8797 28.1328C52.9672 28.1016 53.0547 28.0594 53.1422 28.0062C53.2297 27.95 53.3078 27.8781 53.3766 27.7906C53.4453 27.7031 53.5016 27.5969 53.5453 27.4719C53.5891 27.3437 53.6109 27.1937 53.6109 27.0219V26.5062ZM60.5531 26.0328H61.8188C61.8063 25.8797 61.7781 25.7328 61.7344 25.5922C61.6938 25.4516 61.6344 25.3281 61.5563 25.2219C61.4781 25.1156 61.3813 25.0312 61.2656 24.9687C61.15 24.9031 61.0141 24.8703 60.8578 24.8703C60.7141 24.8703 60.5906 24.8891 60.4875 24.9266C60.3875 24.9609 60.3016 25.0141 60.2297 25.0859C60.1609 25.1547 60.1047 25.2406 60.0609 25.3437C60.0172 25.4437 59.9828 25.5609 59.9578 25.6953H58.575C58.5969 25.4391 58.6453 25.2141 58.7203 25.0203C58.7984 24.8234 58.8953 24.6531 59.0109 24.5094C59.1297 24.3625 59.2625 24.2406 59.4094 24.1437C59.5594 24.0469 59.7156 23.9687 59.8781 23.9094C60.0406 23.8469 60.2047 23.8031 60.3703 23.7781C60.5391 23.7531 60.7016 23.7406 60.8578 23.7406C61.2203 23.7406 61.5469 23.8 61.8375 23.9187C62.1281 24.0375 62.3734 24.2125 62.5734 24.4437C62.7766 24.6719 62.9313 24.9547 63.0375 25.2922C63.1469 25.6266 63.2016 26.0109 63.2016 26.4453C63.2016 26.8797 63.1484 27.2656 63.0422 27.6031C62.9391 27.9406 62.7859 28.225 62.5828 28.4562C62.3828 28.6844 62.1328 28.8578 61.8328 28.9766C61.5328 29.0953 61.1891 29.1547 60.8016 29.1547C60.5016 29.1547 60.2375 29.1156 60.0094 29.0375C59.7813 28.9625 59.5813 28.8656 59.4094 28.7469C59.2406 28.625 59.0984 28.4891 58.9828 28.3391C58.8703 28.1859 58.7797 28.0344 58.7109 27.8844C58.6422 27.7344 58.5922 27.5937 58.5609 27.4625C58.5328 27.3281 58.5188 27.2172 58.5188 27.1297H59.9016C59.9016 27.2141 59.9188 27.3078 59.9531 27.4109C59.9906 27.5141 60.0469 27.6109 60.1219 27.7016C60.1969 27.7922 60.2906 27.8687 60.4031 27.9312C60.5156 27.9906 60.6484 28.0203 60.8016 28.0203C60.9578 28.0203 61.0953 27.9922 61.2141 27.9359C61.3359 27.8766 61.4391 27.7984 61.5234 27.7016C61.6078 27.6016 61.6734 27.4844 61.7203 27.35C61.7703 27.2156 61.8031 27.0719 61.8188 26.9187H60.5531V26.0328ZM64.2047 23.8906H65.5313V25.8312L67.4438 23.8906H69.2063L67.0969 26.0141L69.2953 29H67.5656L66.0656 26.8437L65.5313 27.3828V29H64.2047V23.8906ZM73.0313 25.6953C73.0063 25.5609 72.9719 25.4437 72.9281 25.3437C72.8844 25.2406 72.8266 25.1547 72.7547 25.0859C72.6859 25.0141 72.6 24.9609 72.4969 24.9266C72.3969 24.8891 72.275 24.8703 72.1313 24.8703C71.9094 24.8703 71.7313 24.9219 71.5969 25.025C71.4656 25.1281 71.3641 25.2578 71.2922 25.4141C71.2203 25.5703 71.1719 25.7406 71.1469 25.925C71.125 26.1094 71.1141 26.2828 71.1141 26.4453C71.1141 26.6141 71.1234 26.7922 71.1422 26.9797C71.1609 27.1641 71.2047 27.3344 71.2734 27.4906C71.3422 27.6437 71.4438 27.7703 71.5781 27.8703C71.7125 27.9703 71.8969 28.0203 72.1313 28.0203C72.2844 28.0203 72.4172 27.9906 72.5297 27.9312C72.6422 27.8687 72.7359 27.7922 72.8109 27.7016C72.8859 27.6109 72.9406 27.5141 72.975 27.4109C73.0125 27.3078 73.0313 27.2141 73.0313 27.1297H74.4141C74.4141 27.2141 74.3984 27.3234 74.3672 27.4578C74.3391 27.5922 74.2906 27.7344 74.2219 27.8844C74.1531 28.0344 74.0609 28.1859 73.9453 28.3391C73.8328 28.4891 73.6906 28.625 73.5188 28.7469C73.35 28.8656 73.1516 28.9625 72.9234 29.0375C72.6953 29.1156 72.4313 29.1547 72.1313 29.1547C71.7406 29.1547 71.3953 29.0953 71.0953 28.9766C70.7984 28.8578 70.5484 28.6844 70.3453 28.4562C70.1453 28.225 69.9922 27.9406 69.8859 27.6031C69.7828 27.2656 69.7313 26.8797 69.7313 26.4453C69.7313 26.0109 69.7875 25.6266 69.9 25.2922C70.0156 24.9547 70.1781 24.6719 70.3875 24.4437C70.5969 24.2125 70.8484 24.0375 71.1422 23.9187C71.4391 23.8 71.7688 23.7406 72.1313 23.7406C72.2875 23.7406 72.4484 23.7531 72.6141 23.7781C72.7828 23.8031 72.9484 23.8469 73.1109 23.9094C73.2734 23.9687 73.4281 24.0469 73.575 24.1437C73.725 24.2406 73.8578 24.3625 73.9734 24.5094C74.0922 24.6531 74.1891 24.8234 74.2641 25.0203C74.3422 25.2141 74.3922 25.4391 74.4141 25.6953H73.0313ZM75.3797 23.8906H79.9781V29H78.6563V24.9687H76.7063V29H75.3797V23.8906ZM81.2109 23.8906H82.4766V24.6219H82.4953C82.5859 24.4687 82.6812 24.3375 82.7812 24.2281C82.8812 24.1156 82.9922 24.0234 83.1141 23.9516C83.2359 23.8797 83.3703 23.8266 83.5172 23.7922C83.6672 23.7578 83.8359 23.7406 84.0234 23.7406C84.1797 23.7406 84.3406 23.7594 84.5062 23.7969C84.6719 23.8344 84.8328 23.8953 84.9891 23.9797C85.1484 24.0609 85.2984 24.1687 85.4391 24.3031C85.5797 24.4344 85.7031 24.5969 85.8094 24.7906C85.9156 24.9844 86 25.2109 86.0625 25.4703C86.125 25.7266 86.1562 26.0203 86.1562 26.3516C86.1562 26.7641 86.1109 27.1422 86.0203 27.4859C85.9328 27.8297 85.7984 28.125 85.6172 28.3719C85.4391 28.6187 85.2125 28.8109 84.9375 28.9484C84.6656 29.0859 84.3453 29.1547 83.9766 29.1547C83.8484 29.1547 83.7187 29.1422 83.5875 29.1172C83.4562 29.0922 83.3281 29.05 83.2031 28.9906C83.0781 28.9312 82.9594 28.8516 82.8469 28.7516C82.7375 28.6484 82.6406 28.5203 82.5562 28.3672H82.5375V30.9781H81.2109V23.8906ZM83.6297 24.9312C83.4172 24.9312 83.2375 24.9766 83.0906 25.0672C82.9469 25.1578 82.8297 25.275 82.7391 25.4187C82.6516 25.5625 82.5875 25.725 82.5469 25.9062C82.5062 26.0875 82.4859 26.2672 82.4859 26.4453C82.4859 26.5422 82.4906 26.6484 82.5 26.7641C82.5125 26.8766 82.5344 26.9922 82.5656 27.1109C82.5969 27.2266 82.6391 27.3391 82.6922 27.4484C82.7484 27.5578 82.8187 27.6547 82.9031 27.7391C82.9875 27.8234 83.0891 27.8922 83.2078 27.9453C83.3266 27.9953 83.4672 28.0203 83.6297 28.0203C83.7922 28.0203 83.9328 27.9953 84.0516 27.9453C84.1703 27.8922 84.2719 27.8234 84.3562 27.7391C84.4406 27.6547 84.5094 27.5578 84.5625 27.4484C84.6187 27.3391 84.6625 27.2266 84.6937 27.1109C84.725 26.9922 84.7453 26.8766 84.7547 26.7641C84.7672 26.6484 84.7734 26.5422 84.7734 26.4453C84.7734 26.2672 84.7531 26.0875 84.7125 25.9062C84.6719 25.725 84.6062 25.5625 84.5156 25.4187C84.4281 25.275 84.3109 25.1578 84.1641 25.0672C84.0172 24.9766 83.8391 24.9312 83.6297 24.9312ZM88.0688 26.8578C88.0688 26.9047 88.0734 26.9672 88.0828 27.0453C88.0922 27.1234 88.1109 27.2078 88.1391 27.2984C88.1672 27.3891 88.2078 27.4812 88.2609 27.575C88.3141 27.6656 88.3844 27.7484 88.4719 27.8234C88.5625 27.8984 88.6719 27.9594 88.8 28.0062C88.9313 28.0531 89.0875 28.0766 89.2688 28.0766C89.3625 28.0766 89.4547 28.0641 89.5453 28.0391C89.6391 28.0109 89.725 27.9719 89.8031 27.9219C89.8813 27.8687 89.9484 27.8062 90.0047 27.7344C90.0641 27.6594 90.1063 27.575 90.1313 27.4812H91.5047C91.5047 27.575 91.4844 27.6828 91.4438 27.8047C91.4031 27.9234 91.3406 28.0453 91.2563 28.1703C91.175 28.2922 91.0719 28.4125 90.9469 28.5312C90.8219 28.65 90.6734 28.7562 90.5016 28.85C90.3297 28.9406 90.1344 29.0141 89.9156 29.0703C89.7 29.1266 89.4594 29.1547 89.1938 29.1547C88.8531 29.1547 88.5328 29.1031 88.2328 29C87.9359 28.9 87.675 28.7406 87.45 28.5219C87.2281 28.3 87.0531 28.0141 86.925 27.6641C86.7969 27.3141 86.7328 26.8891 86.7328 26.3891C86.7328 26.0422 86.7781 25.7094 86.8688 25.3906C86.9625 25.0687 87.1063 24.7859 87.3 24.5422C87.4969 24.2984 87.7469 24.1047 88.05 23.9609C88.3563 23.8141 88.7234 23.7406 89.1516 23.7406C89.6047 23.7406 89.9859 23.8156 90.2953 23.9656C90.6047 24.1125 90.8531 24.3219 91.0406 24.5937C91.2313 24.8656 91.3672 25.1937 91.4484 25.5781C91.5297 25.9625 91.5703 26.3891 91.5703 26.8578H88.0688ZM90.1922 25.9766C90.1922 25.7516 90.1578 25.5641 90.0891 25.4141C90.0234 25.2641 89.9391 25.1453 89.8359 25.0578C89.7359 24.9672 89.625 24.9047 89.5031 24.8703C89.3813 24.8328 89.2641 24.8141 89.1516 24.8141C89.0422 24.8141 88.9266 24.8328 88.8047 24.8703C88.6828 24.9047 88.5703 24.9672 88.4672 25.0578C88.3672 25.1453 88.2828 25.2641 88.2141 25.4141C88.1484 25.5641 88.1156 25.7516 88.1156 25.9766H90.1922ZM95.4563 25.6953C95.4313 25.5609 95.3969 25.4437 95.3531 25.3437C95.3094 25.2406 95.2516 25.1547 95.1797 25.0859C95.1109 25.0141 95.025 24.9609 94.9219 24.9266C94.8219 24.8891 94.7 24.8703 94.5563 24.8703C94.3344 24.8703 94.1563 24.9219 94.0219 25.025C93.8906 25.1281 93.7891 25.2578 93.7172 25.4141C93.6453 25.5703 93.5969 25.7406 93.5719 25.925C93.55 26.1094 93.5391 26.2828 93.5391 26.4453C93.5391 26.6141 93.5484 26.7922 93.5672 26.9797C93.5859 27.1641 93.6297 27.3344 93.6984 27.4906C93.7672 27.6437 93.8688 27.7703 94.0031 27.8703C94.1375 27.9703 94.3219 28.0203 94.5563 28.0203C94.7094 28.0203 94.8422 27.9906 94.9547 27.9312C95.0672 27.8687 95.1609 27.7922 95.2359 27.7016C95.3109 27.6109 95.3656 27.5141 95.4 27.4109C95.4375 27.3078 95.4563 27.2141 95.4563 27.1297H96.8391C96.8391 27.2141 96.8234 27.3234 96.7922 27.4578C96.7641 27.5922 96.7156 27.7344 96.6469 27.8844C96.5781 28.0344 96.4859 28.1859 96.3703 28.3391C96.2578 28.4891 96.1156 28.625 95.9438 28.7469C95.775 28.8656 95.5766 28.9625 95.3484 29.0375C95.1203 29.1156 94.8563 29.1547 94.5563 29.1547C94.1656 29.1547 93.8203 29.0953 93.5203 28.9766C93.2234 28.8578 92.9734 28.6844 92.7703 28.4562C92.5703 28.225 92.4172 27.9406 92.3109 27.6031C92.2078 27.2656 92.1563 26.8797 92.1563 26.4453C92.1563 26.0109 92.2125 25.6266 92.325 25.2922C92.4406 24.9547 92.6031 24.6719 92.8125 24.4437C93.0219 24.2125 93.2734 24.0375 93.5672 23.9187C93.8641 23.8 94.1938 23.7406 94.5563 23.7406C94.7125 23.7406 94.8734 23.7531 95.0391 23.7781C95.2078 23.8031 95.3734 23.8469 95.5359 23.9094C95.6984 23.9687 95.8531 24.0469 96 24.1437C96.15 24.2406 96.2828 24.3625 96.3984 24.5094C96.5172 24.6531 96.6141 24.8234 96.6891 25.0203C96.7672 25.2141 96.8172 25.4391 96.8391 25.6953H95.4563ZM100.8 25.6953C100.775 25.5609 100.741 25.4437 100.697 25.3437C100.653 25.2406 100.595 25.1547 100.523 25.0859C100.455 25.0141 100.369 24.9609 100.266 24.9266C100.166 24.8891 100.044 24.8703 99.9 24.8703C99.6781 24.8703 99.5 24.9219 99.3656 25.025C99.2344 25.1281 99.1328 25.2578 99.0609 25.4141C98.9891 25.5703 98.9406 25.7406 98.9156 25.925C98.8938 26.1094 98.8828 26.2828 98.8828 26.4453C98.8828 26.6141 98.8922 26.7922 98.9109 26.9797C98.9297 27.1641 98.9734 27.3344 99.0422 27.4906C99.1109 27.6437 99.2125 27.7703 99.3469 27.8703C99.4813 27.9703 99.6656 28.0203 99.9 28.0203C100.053 28.0203 100.186 27.9906 100.298 27.9312C100.411 27.8687 100.505 27.7922 100.58 27.7016C100.655 27.6109 100.709 27.5141 100.744 27.4109C100.781 27.3078 100.8 27.2141 100.8 27.1297H102.183C102.183 27.2141 102.167 27.3234 102.136 27.4578C102.108 27.5922 102.059 27.7344 101.991 27.8844C101.922 28.0344 101.83 28.1859 101.714 28.3391C101.602 28.4891 101.459 28.625 101.288 28.7469C101.119 28.8656 100.92 28.9625 100.692 29.0375C100.464 29.1156 100.2 29.1547 99.9 29.1547C99.5094 29.1547 99.1641 29.0953 98.8641 28.9766C98.5672 28.8578 98.3172 28.6844 98.1141 28.4562C97.9141 28.225 97.7609 27.9406 97.6547 27.6031C97.5516 27.2656 97.5 26.8797 97.5 26.4453C97.5 26.0109 97.5563 25.6266 97.6688 25.2922C97.7844 24.9547 97.9469 24.6719 98.1563 24.4437C98.3656 24.2125 98.6172 24.0375 98.9109 23.9187C99.2078 23.8 99.5375 23.7406 99.9 23.7406C100.056 23.7406 100.217 23.7531 100.383 23.7781C100.552 23.8031 100.717 23.8469 100.88 23.9094C101.042 23.9687 101.197 24.0469 101.344 24.1437C101.494 24.2406 101.627 24.3625 101.742 24.5094C101.861 24.6531 101.958 24.8234 102.033 25.0203C102.111 25.2141 102.161 25.4391 102.183 25.6953H100.8ZM108.816 25.6953C108.791 25.5609 108.756 25.4437 108.713 25.3437C108.669 25.2406 108.611 25.1547 108.539 25.0859C108.47 25.0141 108.384 24.9609 108.281 24.9266C108.181 24.8891 108.059 24.8703 107.916 24.8703C107.694 24.8703 107.516 24.9219 107.381 25.025C107.25 25.1281 107.148 25.2578 107.077 25.4141C107.005 25.5703 106.956 25.7406 106.931 25.925C106.909 26.1094 106.898 26.2828 106.898 26.4453C106.898 26.6141 106.908 26.7922 106.927 26.9797C106.945 27.1641 106.989 27.3344 107.058 27.4906C107.127 27.6437 107.228 27.7703 107.363 27.8703C107.497 27.9703 107.681 28.0203 107.916 28.0203C108.069 28.0203 108.202 27.9906 108.314 27.9312C108.427 27.8687 108.52 27.7922 108.595 27.7016C108.67 27.6109 108.725 27.5141 108.759 27.4109C108.797 27.3078 108.816 27.2141 108.816 27.1297H110.198C110.198 27.2141 110.183 27.3234 110.152 27.4578C110.123 27.5922 110.075 27.7344 110.006 27.8844C109.938 28.0344 109.845 28.1859 109.73 28.3391C109.617 28.4891 109.475 28.625 109.303 28.7469C109.134 28.8656 108.936 28.9625 108.708 29.0375C108.48 29.1156 108.216 29.1547 107.916 29.1547C107.525 29.1547 107.18 29.0953 106.88 28.9766C106.583 28.8578 106.333 28.6844 106.13 28.4562C105.93 28.225 105.777 27.9406 105.67 27.6031C105.567 27.2656 105.516 26.8797 105.516 26.4453C105.516 26.0109 105.572 25.6266 105.684 25.2922C105.8 24.9547 105.963 24.6719 106.172 24.4437C106.381 24.2125 106.633 24.0375 106.927 23.9187C107.223 23.8 107.553 23.7406 107.916 23.7406C108.072 23.7406 108.233 23.7531 108.398 23.7781C108.567 23.8031 108.733 23.8469 108.895 23.9094C109.058 23.9687 109.213 24.0469 109.359 24.1437C109.509 24.2406 109.642 24.3625 109.758 24.5094C109.877 24.6531 109.973 24.8234 110.048 25.0203C110.127 25.2141 110.177 25.4391 110.198 25.6953H108.816ZM115.294 27.9922C115.294 28.1453 115.302 28.2719 115.317 28.3719C115.336 28.4687 115.359 28.5469 115.388 28.6062C115.416 28.6625 115.447 28.7047 115.481 28.7328C115.519 28.7578 115.558 28.7766 115.598 28.7891V29H114.131C114.106 28.9406 114.078 28.8625 114.047 28.7656C114.019 28.6656 114.005 28.5453 114.005 28.4047C113.902 28.5109 113.8 28.6094 113.7 28.7C113.603 28.7906 113.494 28.8703 113.372 28.9391C113.25 29.0047 113.109 29.0563 112.95 29.0938C112.791 29.1344 112.598 29.1547 112.373 29.1547C112.145 29.1547 111.934 29.1203 111.741 29.0516C111.55 28.9859 111.384 28.8875 111.244 28.7562C111.103 28.625 110.994 28.4609 110.916 28.2641C110.838 28.0672 110.798 27.8391 110.798 27.5797C110.798 27.3703 110.831 27.1766 110.897 26.9984C110.963 26.8172 111.055 26.6594 111.173 26.525C111.295 26.3875 111.442 26.275 111.614 26.1875C111.789 26.0969 111.984 26.0359 112.2 26.0047L113.498 25.8125C113.545 25.8062 113.595 25.7969 113.648 25.7844C113.705 25.7719 113.756 25.7516 113.803 25.7234C113.85 25.6922 113.889 25.6516 113.92 25.6016C113.952 25.5484 113.967 25.4781 113.967 25.3906C113.967 25.3062 113.953 25.2297 113.925 25.1609C113.9 25.0891 113.856 25.0281 113.794 24.9781C113.731 24.925 113.647 24.8844 113.541 24.8562C113.438 24.8281 113.308 24.8141 113.152 24.8141C112.973 24.8141 112.83 24.8328 112.72 24.8703C112.614 24.9047 112.53 24.9547 112.467 25.0203C112.405 25.0828 112.359 25.1578 112.331 25.2453C112.303 25.3297 112.283 25.4203 112.27 25.5172H110.944C110.944 25.4547 110.953 25.3687 110.972 25.2594C110.994 25.1469 111.031 25.025 111.084 24.8937C111.141 24.7625 111.217 24.6297 111.314 24.4953C111.414 24.3609 111.544 24.2391 111.703 24.1297C111.866 24.0172 112.063 23.925 112.294 23.8531C112.525 23.7812 112.802 23.7437 113.123 23.7406C113.58 23.7406 113.948 23.7875 114.23 23.8812C114.514 23.9719 114.734 24.0922 114.891 24.2422C115.05 24.3891 115.156 24.5547 115.209 24.7391C115.266 24.9203 115.294 25.1016 115.294 25.2828V27.9922ZM113.967 26.5062C113.886 26.55 113.805 26.5906 113.723 26.6281C113.642 26.6625 113.534 26.6922 113.4 26.7172L113.048 26.7828C112.895 26.8109 112.761 26.8437 112.645 26.8812C112.53 26.9187 112.433 26.9687 112.355 27.0312C112.28 27.0906 112.222 27.1641 112.181 27.2516C112.144 27.3391 112.125 27.4484 112.125 27.5797C112.125 27.6891 112.142 27.7844 112.177 27.8656C112.211 27.9437 112.258 28.0094 112.317 28.0625C112.38 28.1125 112.452 28.15 112.533 28.175C112.614 28.2 112.702 28.2125 112.795 28.2125C112.845 28.2125 112.909 28.2078 112.988 28.1984C113.066 28.1859 113.148 28.1641 113.236 28.1328C113.323 28.1016 113.411 28.0594 113.498 28.0062C113.586 27.95 113.664 27.8781 113.733 27.7906C113.802 27.7031 113.858 27.5969 113.902 27.4719C113.945 27.3437 113.967 27.1937 113.967 27.0219V26.5062ZM120.413 21.7531C120.413 22 120.372 22.2109 120.291 22.3859C120.209 22.5609 120.097 22.7047 119.953 22.8172C119.813 22.9266 119.644 23.0078 119.447 23.0609C119.25 23.1109 119.036 23.1359 118.805 23.1359C118.57 23.1359 118.355 23.1109 118.158 23.0609C117.961 23.0078 117.791 22.9266 117.647 22.8172C117.503 22.7047 117.391 22.5609 117.309 22.3859C117.231 22.2109 117.192 22 117.192 21.7531H118.153C118.156 21.8406 118.167 21.9234 118.186 22.0016C118.205 22.0766 118.238 22.1437 118.284 22.2031C118.334 22.2594 118.4 22.3047 118.481 22.3391C118.566 22.3703 118.673 22.3859 118.805 22.3859C118.933 22.3859 119.039 22.3734 119.123 22.3484C119.211 22.3203 119.28 22.2797 119.33 22.2266C119.38 22.1734 119.414 22.1078 119.433 22.0297C119.452 21.9516 119.459 21.8594 119.456 21.7531H120.413ZM116.508 23.8906H117.834V27.0406H117.853L119.714 23.8906H121.106V29H119.784V25.9203H119.761L117.956 29H116.508V23.8906ZM123.483 24.9687H121.936V23.8906H126.352V24.9687H124.805V29H123.483V24.9687ZM126.872 26.4453C126.872 26.0516 126.931 25.6891 127.05 25.3578C127.172 25.0266 127.345 24.7422 127.57 24.5047C127.798 24.2641 128.073 24.0766 128.395 23.9422C128.717 23.8078 129.08 23.7406 129.483 23.7406C129.892 23.7406 130.258 23.8078 130.58 23.9422C130.905 24.0766 131.178 24.2641 131.4 24.5047C131.625 24.7422 131.797 25.0266 131.916 25.3578C132.034 25.6891 132.094 26.0516 132.094 26.4453C132.094 26.8391 132.034 27.2016 131.916 27.5328C131.797 27.8641 131.625 28.15 131.4 28.3906C131.178 28.6312 130.905 28.8187 130.58 28.9531C130.258 29.0875 129.892 29.1547 129.483 29.1547C129.08 29.1547 128.717 29.0875 128.395 28.9531C128.073 28.8187 127.798 28.6312 127.57 28.3906C127.345 28.15 127.172 27.8641 127.05 27.5328C126.931 27.2016 126.872 26.8391 126.872 26.4453ZM128.255 26.4453C128.255 26.6391 128.275 26.8312 128.316 27.0219C128.359 27.2094 128.43 27.3781 128.527 27.5281C128.623 27.675 128.75 27.7937 128.906 27.8844C129.063 27.975 129.255 28.0203 129.483 28.0203C129.72 28.0203 129.917 27.9766 130.073 27.8891C130.233 27.7984 130.359 27.6812 130.453 27.5375C130.547 27.3906 130.613 27.2234 130.65 27.0359C130.691 26.8453 130.711 26.6484 130.711 26.4453C130.711 26.2453 130.691 26.05 130.65 25.8594C130.613 25.6687 130.547 25.5016 130.453 25.3578C130.359 25.2109 130.233 25.0937 130.073 25.0062C129.917 24.9156 129.72 24.8703 129.483 24.8703C129.255 24.8703 129.063 24.9156 128.906 25.0062C128.75 25.0969 128.623 25.2172 128.527 25.3672C128.43 25.5141 128.359 25.6828 128.316 25.8734C128.275 26.0609 128.255 26.2516 128.255 26.4453ZM134.419 25.8969H135.441C135.591 25.8969 135.716 25.8859 135.816 25.8641C135.916 25.8391 135.994 25.8047 136.05 25.7609C136.109 25.7141 136.15 25.6578 136.172 25.5922C136.197 25.5234 136.209 25.4437 136.209 25.3531C136.209 25.2781 136.197 25.2094 136.172 25.1469C136.15 25.0812 136.111 25.0266 136.055 24.9828C135.998 24.9359 135.923 24.9 135.83 24.875C135.736 24.8469 135.619 24.8328 135.478 24.8328H134.419V25.8969ZM133.092 23.8906H135.736C135.97 23.8906 136.195 23.9109 136.411 23.9516C136.63 23.9922 136.822 24.0641 136.988 24.1672C137.153 24.2672 137.284 24.4047 137.381 24.5797C137.481 24.7516 137.531 24.9703 137.531 25.2359C137.531 25.3891 137.514 25.5219 137.48 25.6344C137.448 25.7469 137.405 25.8437 137.348 25.925C137.292 26.0031 137.227 26.0703 137.152 26.1266C137.08 26.1797 137.005 26.225 136.927 26.2625C137.183 26.3531 137.378 26.4984 137.513 26.6984C137.647 26.8953 137.714 27.1312 137.714 27.4062C137.714 27.6469 137.672 27.8656 137.588 28.0625C137.506 28.2562 137.389 28.4234 137.236 28.5641C137.086 28.7016 136.902 28.8094 136.683 28.8875C136.467 28.9625 136.225 29 135.956 29H133.092V23.8906ZM134.419 28.0578H135.441C135.631 28.0578 135.784 28.0375 135.9 27.9969C136.019 27.9562 136.109 27.9047 136.172 27.8422C136.238 27.7797 136.28 27.7109 136.298 27.6359C136.32 27.5609 136.331 27.4906 136.331 27.425C136.331 27.3 136.314 27.1969 136.28 27.1156C136.248 27.0312 136.197 26.9641 136.125 26.9141C136.056 26.8641 135.964 26.8297 135.848 26.8109C135.736 26.7922 135.6 26.7828 135.441 26.7828H134.419V28.0578Z" fill="#0094FF" fill-opacity="0.6"/>
</svg>
